<?xml version="1.0" encoding="UTF-8"?>
<svg version="1.1" xmlns="http://www.w3.org/2000/svg" width="500" height="500">
<path d="M0 0 C1.96462267 2.0113994 3.41369837 3.73964688 5 6 C5.77537109 6.98613281 5.77537109 6.98613281 6.56640625 7.9921875 C9.48164716 11.71526626 11.19642679 14.49106698 13 19 C16.96 19 20.92 19 25 19 C25 25.6 25 32.2 25 39 C31.27 39 37.54 39 44 39 C44 32.4 44 25.8 44 19 C47.96 19 51.92 19 56 19 C56 35.5 56 52 56 69 C52.04 69 48.08 69 44 69 C44 62.4 44 55.8 44 49 C37.73 49 31.46 49 25 49 C25 55.6 25 62.2 25 69 C21.04 69 17.08 69 13 69 C12.67 55.14 12.34 41.28 12 27 C11.09507812 32.49140625 11.09507812 32.49140625 10.171875 38.09375 C9.57584515 41.65547708 8.97539195 45.21643214 8.37451172 48.77734375 C7.96070291 51.24401955 7.55146477 53.71146681 7.14697266 56.1796875 C6.56324956 59.73652604 5.96290186 63.29022496 5.359375 66.84375 C5.18315613 67.93989624 5.00693726 69.03604248 4.82537842 70.16540527 C3.55678849 77.50308512 2.08514804 84.06910936 -3.5 89.375 C-7.12349412 91.73027118 -9.75297628 93.24910241 -14.12989616 93.25447559 C-15.35896401 93.26322388 -15.35896401 93.26322388 -16.61286151 93.27214891 C-17.50759933 93.26836958 -18.40233715 93.26459026 -19.32418823 93.26069641 C-20.27892379 93.26452196 -21.23365935 93.26834751 -22.21732628 93.27228898 C-25.42472494 93.28262895 -28.63194491 93.2786249 -31.83935547 93.2746582 C-34.13560146 93.27900414 -36.431846 93.28418689 -38.72808838 93.29014587 C-44.97187319 93.30356029 -51.21559756 93.30411179 -57.45939398 93.30158257 C-62.66828212 93.30051445 -67.87715796 93.3053922 -73.08604348 93.310188 C-86.07629058 93.32192707 -99.06649904 93.32105329 -112.05674781 93.31463119 C-123.33656327 93.30946284 -134.61629235 93.32071471 -145.89609073 93.33972941 C-157.47888288 93.35910512 -169.06163046 93.36707275 -180.64443886 93.36360615 C-187.14700148 93.36179111 -193.649485 93.36445153 -200.15203476 93.37832069 C-206.26694501 93.39087444 -212.38168214 93.38897807 -218.49658966 93.37590981 C-220.74197828 93.37353908 -222.98737899 93.37629639 -225.23275375 93.38453293 C-228.29598616 93.39495996 -231.35863335 93.38693191 -234.42184448 93.3742218 C-235.75725904 93.38528323 -235.75725904 93.38528323 -237.11965168 93.39656812 C-242.9777076 93.34537162 -247.06486102 92.30209333 -251.79077148 88.59545898 C-256.52557206 83.37099455 -257.71237127 77.85846689 -259.0625 71.0625 C-259.30363525 69.92820557 -259.54477051 68.79391113 -259.79321289 67.62524414 C-260.29300685 65.26402441 -260.78405447 62.90093744 -261.26660156 60.53613281 C-261.97826874 57.10477884 -262.74163573 53.6894182 -263.5234375 50.2734375 C-263.99564935 48.16164993 -264.46703842 46.04967818 -264.9375 43.9375 C-265.16123291 42.97013916 -265.38496582 42.00277832 -265.61547852 41.00610352 C-267.5377925 32.05383637 -267.27889231 25.32966074 -262.75 17.1875 C-262.16734375 16.10855469 -261.5846875 15.02960938 -260.984375 13.91796875 C-257.30282739 8.50435445 -253.31158577 6.29593068 -247 5 C-243.87681868 4.65718627 -240.76067205 4.54872278 -237.62117004 4.45578003 C-236.69668947 4.42140276 -235.7722089 4.38702549 -234.81971377 4.35160649 C-231.73266419 4.23894461 -228.64533868 4.1387724 -225.55786133 4.03857422 C-223.33984778 3.9602085 -221.12186117 3.88107737 -218.90390015 3.80123901 C-212.88536201 3.58682277 -206.86649995 3.38327658 -200.84751725 3.18177938 C-194.54150081 2.96894006 -188.23582314 2.74649132 -181.93009949 2.525177 C-171.33567268 2.15470206 -160.74104405 1.79063797 -150.14624023 1.43115234 C-139.26584916 1.06196471 -128.38563931 0.68795896 -117.50561523 0.30810547 C-116.50147909 0.27304969 -116.50147909 0.27304969 -115.47705738 0.23728572 C-112.78554684 0.14331106 -110.0940366 0.04932795 -107.40252696 -0.0446725 C-96.38088572 -0.42946105 -85.35910802 -0.81031354 -74.33731246 -1.19065237 C-71.83290751 -1.27712298 -69.32850678 -1.36371574 -66.82411027 -1.45043039 C-59.67694466 -1.6978767 -52.52971559 -1.94329314 -45.38236618 -2.18537521 C-43.22171216 -2.25884887 -41.06108122 -2.33300507 -38.90047646 -2.40791321 C-5.73031124 -3.55628215 -5.73031124 -3.55628215 0 0 Z M7 13 C6.88138107 13.69633545 6.76276215 14.3926709 6.64054871 15.11010742 C5.51621963 21.70181951 4.38426394 28.29217212 3.24392223 34.88113403 C2.65805507 38.26787967 2.07505324 41.65506476 1.4987793 45.04345703 C0.83473172 48.94716036 0.15789689 52.84859552 -0.51953125 56.75 C-0.72278519 57.95551514 -0.92603912 59.16103027 -1.13545227 60.40307617 C-3.83001967 75.77137155 -3.83001967 75.77137155 -8.3125 80.375 C-14.1739199 83.91911436 -19.44468037 84.29059603 -26.10240173 84.26069641 C-27.00913795 84.26452196 -27.91587416 84.26834751 -28.85008723 84.27228898 C-31.88310895 84.28259339 -34.91594047 84.27863168 -37.94897461 84.2746582 C-40.12566808 84.27900607 -42.30236002 84.28418947 -44.47904968 84.29014587 C-50.38808409 84.30353855 -56.29705455 84.30411427 -62.20610118 84.30158257 C-67.13912425 84.30051312 -72.07213437 84.30539554 -77.00515467 84.310188 C-88.64236231 84.32128395 -100.27953767 84.32171997 -111.91674805 84.31567383 C-123.92281979 84.30963198 -135.92875695 84.32195024 -147.93481058 84.3432439 C-158.24324349 84.36085456 -168.5516391 84.36686212 -178.8600865 84.36360615 C-185.0166855 84.36179243 -191.17320092 84.36443857 -197.3297863 84.37832069 C-203.11888142 84.39088576 -208.90779378 84.38896731 -214.69688606 84.37590981 C-216.82091458 84.37354167 -218.9449559 84.37628717 -221.06896973 84.38453293 C-223.96973052 84.39498176 -226.86987595 84.38691448 -229.77061462 84.3742218 C-231.02957649 84.38528323 -231.02957649 84.38528323 -232.31397194 84.39656812 C-238.54787767 84.3392331 -243.16102862 83.12922853 -248.25 79.3125 C-252.72117011 73.40416807 -253.83348747 65.74799313 -255.19140625 58.62890625 C-255.58261755 56.65428405 -255.97389549 54.67967505 -256.36523438 52.70507812 C-256.96892136 49.61547587 -257.56970433 46.52532937 -258.16870117 43.43481445 C-258.75247424 40.43555915 -259.34647052 37.43846386 -259.94140625 34.44140625 C-260.11853653 33.50921768 -260.29566681 32.57702911 -260.47816467 31.61659241 C-260.6485173 30.76157639 -260.81886993 29.90656036 -260.99438477 29.02563477 C-261.21397606 27.89267723 -261.21397606 27.89267723 -261.43800354 26.73683167 C-261.62346237 26.16367722 -261.8089212 25.59052277 -262 25 C-262.66 24.67 -263.32 24.34 -264 24 C-265.16811785 31.16784999 -264.60062099 36.88903463 -263.05078125 43.94921875 C-262.83689255 44.96546829 -262.62300385 45.98171783 -262.40263367 47.02876282 C-261.9494782 49.16394473 -261.48938559 51.29766501 -261.02270508 53.42993164 C-260.31318842 56.68434237 -259.63274074 59.94390347 -258.95507812 63.20507812 C-258.5095386 65.2868285 -258.06232959 67.36822243 -257.61328125 69.44921875 C-257.31143669 70.90251839 -257.31143669 70.90251839 -257.00349426 72.38517761 C-255.25797703 80.21744033 -252.80591735 85.28821106 -246 90 C-241.96671647 91.34442784 -238.07794036 91.14453731 -233.87199402 91.14044189 C-232.45342298 91.14489858 -232.45342298 91.14489858 -231.00619394 91.1494453 C-227.82337499 91.15814724 -224.64059359 91.15964181 -221.45776367 91.16113281 C-219.18137023 91.16575991 -216.90497757 91.17078442 -214.62858582 91.17617798 C-208.43434356 91.18931399 -202.24011215 91.19574922 -196.04585814 91.20018864 C-192.17816188 91.20311728 -188.31046859 91.20722168 -184.44277382 91.21169281 C-173.73429928 91.2238029 -163.02582838 91.23418466 -152.31734753 91.2375679 C-151.63197645 91.23778747 -150.94660538 91.23800703 -150.24046548 91.23823325 C-149.20994916 91.23856067 -149.20994916 91.23856067 -148.15861434 91.2388947 C-146.7664688 91.23933817 -145.37432327 91.23978473 -143.98217773 91.24023438 C-143.29162547 91.2404558 -142.60107321 91.24067723 -141.88959513 91.24090537 C-130.70025186 91.24485336 -119.51097371 91.26230749 -108.32165559 91.2855939 C-96.83382018 91.30930859 -85.34602673 91.32151182 -73.85816556 91.32293582 C-67.40811841 91.32398522 -60.95816311 91.32992175 -54.50813866 91.34775543 C-48.44167708 91.364202 -42.37537672 91.36640817 -36.30890083 91.35761642 C-34.0812474 91.35684423 -31.85358541 91.36121262 -29.62595367 91.37107468 C-26.58676146 91.38374146 -23.5481448 91.37794584 -20.50895691 91.36749268 C-19.62578031 91.37554908 -18.74260372 91.38360548 -17.83266419 91.39190602 C-11.33194551 91.33955156 -7.18787942 90.00555614 -2.28125 85.5078125 C1.02695408 81.19816326 1.60317007 76.11256849 2.5 70.875 C2.79910278 69.2494519 2.79910278 69.2494519 3.10424805 67.59106445 C3.52844768 65.27227181 3.94446441 62.95196989 4.35302734 60.63037109 C5.01237285 56.93057196 5.71456022 53.2409335 6.42578125 49.55078125 C6.88914429 47.09656601 7.35141041 44.64214338 7.8125 42.1875 C8.03164063 41.05103027 8.25078125 39.91456055 8.4765625 38.74365234 C9.77207306 31.62774716 11.04687232 24.22307348 10 17 C9.03938168 15.63801974 8.04308791 14.29990207 7 13 Z " fill="#7ED658" transform="translate(304,184)"/>
<path d="M0 0 C5.65876571 5.32589714 10.09626487 10.74066216 13 18 C16.96 18 20.92 18 25 18 C25 24.6 25 31.2 25 38 C31.27 38 37.54 38 44 38 C44 31.4 44 24.8 44 18 C47.96 18 51.92 18 56 18 C56 34.5 56 51 56 68 C52.04 68 48.08 68 44 68 C44 61.4 44 54.8 44 48 C37.73 48 31.46 48 25 48 C25 54.6 25 61.2 25 68 C21.04 68 17.08 68 13 68 C12.67 54.14 12.34 40.28 12 26 C11.09507812 31.49140625 11.09507812 31.49140625 10.171875 37.09375 C9.57584515 40.65547708 8.97539195 44.21643214 8.37451172 47.77734375 C7.96070291 50.24401955 7.55146477 52.71146681 7.14697266 55.1796875 C6.56324956 58.73652604 5.96290186 62.29022496 5.359375 65.84375 C5.18315613 66.93989624 5.00693726 68.03604248 4.82537842 69.16540527 C3.55678849 76.50308512 2.08514804 83.06910936 -3.5 88.375 C-7.12349412 90.73027118 -9.75297628 92.24910241 -14.12989616 92.25447559 C-15.35896401 92.26322388 -15.35896401 92.26322388 -16.61286151 92.27214891 C-17.50759933 92.26836958 -18.40233715 92.26459026 -19.32418823 92.26069641 C-20.27892379 92.26452196 -21.23365935 92.26834751 -22.21732628 92.27228898 C-25.42472494 92.28262895 -28.63194491 92.2786249 -31.83935547 92.2746582 C-34.13560146 92.27900414 -36.431846 92.28418689 -38.72808838 92.29014587 C-44.97187319 92.30356029 -51.21559756 92.30411179 -57.45939398 92.30158257 C-62.66828212 92.30051445 -67.87715796 92.3053922 -73.08604348 92.310188 C-86.07629058 92.32192707 -99.06649904 92.32105329 -112.05674781 92.31463119 C-123.33656327 92.30946284 -134.61629235 92.32071471 -145.89609073 92.33972941 C-157.47888288 92.35910512 -169.06163046 92.36707275 -180.64443886 92.36360615 C-187.14700148 92.36179111 -193.649485 92.36445153 -200.15203476 92.37832069 C-206.26694501 92.39087444 -212.38168214 92.38897807 -218.49658966 92.37590981 C-220.74197828 92.37353908 -222.98737899 92.37629639 -225.23275375 92.38453293 C-228.29598616 92.39495996 -231.35863335 92.38693191 -234.42184448 92.3742218 C-235.75725904 92.38528323 -235.75725904 92.38528323 -237.11965168 92.39656812 C-242.9777076 92.34537162 -247.06486102 91.30209333 -251.79077148 87.59545898 C-256.52557206 82.37099455 -257.71237127 76.85846689 -259.0625 70.0625 C-259.30363525 68.92820557 -259.54477051 67.79391113 -259.79321289 66.62524414 C-260.29300685 64.26402441 -260.78405447 61.90093744 -261.26660156 59.53613281 C-261.97826874 56.10477884 -262.74163573 52.6894182 -263.5234375 49.2734375 C-263.99564935 47.16164993 -264.46703842 45.04967818 -264.9375 42.9375 C-265.16123291 41.97013916 -265.38496582 41.00277832 -265.61547852 40.00610352 C-266.84435797 34.28317935 -267.69228468 28.72038896 -266 23 C-264.44897461 20.74584961 -264.44897461 20.74584961 -263 19 C-263.12656982 19.6607251 -263.25313965 20.3214502 -263.38354492 21.00219727 C-264.8794158 31.96924109 -262.39747775 42.04890891 -260.02270508 52.73168945 C-259.30974094 55.9499542 -258.63058046 59.17407794 -257.95507812 62.40039062 C-257.50978782 64.4639689 -257.06258924 66.52713653 -256.61328125 68.58984375 C-256.41205154 69.54616196 -256.21082184 70.50248016 -256.00349426 71.48777771 C-254.57804041 77.79329354 -252.91582341 82.43760973 -247.9375 86.8125 C-243.46881476 89.5513716 -238.92963465 89.14536662 -233.87199402 89.14044189 C-232.45342298 89.14489858 -232.45342298 89.14489858 -231.00619394 89.1494453 C-227.82337499 89.15814724 -224.64059359 89.15964181 -221.45776367 89.16113281 C-219.18137023 89.16575991 -216.90497757 89.17078442 -214.62858582 89.17617798 C-208.43434356 89.18931399 -202.24011215 89.19574922 -196.04585814 89.20018864 C-192.17816188 89.20311728 -188.31046859 89.20722168 -184.44277382 89.21169281 C-173.73429928 89.2238029 -163.02582838 89.23418466 -152.31734753 89.2375679 C-151.63197645 89.23778747 -150.94660538 89.23800703 -150.24046548 89.23823325 C-149.20994916 89.23856067 -149.20994916 89.23856067 -148.15861434 89.2388947 C-146.7664688 89.23933817 -145.37432327 89.23978473 -143.98217773 89.24023438 C-143.29162547 89.2404558 -142.60107321 89.24067723 -141.88959513 89.24090537 C-130.70025186 89.24485336 -119.51097371 89.26230749 -108.32165559 89.2855939 C-96.83382018 89.30930859 -85.34602673 89.32151182 -73.85816556 89.32293582 C-67.40811841 89.32398522 -60.95816311 89.32992175 -54.50813866 89.34775543 C-48.44167708 89.364202 -42.37537672 89.36640817 -36.30890083 89.35761642 C-34.0812474 89.35684423 -31.85358541 89.36121262 -29.62595367 89.37107468 C-26.58676146 89.38374146 -23.5481448 89.37794584 -20.50895691 89.36749268 C-19.62578031 89.37554908 -18.74260372 89.38360548 -17.83266419 89.39190602 C-11.69764408 89.34249677 -7.47275885 88.22070259 -2.77734375 84.00390625 C-0.14185228 79.54963605 0.5378354 74.99464033 1.4375 69.9375 C1.64141357 68.84928955 1.84532715 67.7610791 2.05541992 66.63989258 C2.48922628 64.30998333 2.91617705 61.97878912 3.33691406 59.64648438 C4.01059848 55.94171616 4.71743449 52.24440554 5.4296875 48.546875 C5.89188637 46.09398735 6.35285389 43.6408673 6.8125 41.1875 C7.14109009 39.48291626 7.14109009 39.48291626 7.47631836 37.74389648 C10.03564926 25.70058774 10.03564926 25.70058774 8 14 C6.27560249 22.28800399 4.6952033 30.58710943 3.28125 38.93359375 C3.13558594 39.78925934 2.98992187 40.64492493 2.83984375 41.52651978 C2.23918838 45.06043316 1.64014698 48.59455489 1.05224609 52.13061523 C0.61494326 54.75371536 0.16762135 57.37495186 -0.28125 59.99609375 C-0.40947144 60.78269882 -0.53769287 61.56930389 -0.6697998 62.37974548 C-2.94923296 75.53821933 -2.94923296 75.53821933 -7.8125 79.875 C-13.82598343 83.88398895 -19.10732436 84.29105752 -26.10913086 84.25396729 C-27.01657264 84.25708727 -27.92401442 84.26020725 -28.85895443 84.26342177 C-31.89431729 84.27138791 -34.92947946 84.26508347 -37.96484375 84.25878906 C-40.14315915 84.26149953 -42.32147363 84.26506078 -44.49978638 84.26940918 C-50.41289135 84.27852871 -56.32592655 84.27499068 -62.23903275 84.26865101 C-68.42620278 84.2635888 -74.61336684 84.26828308 -80.80053711 84.27142334 C-91.19092888 84.27506233 -101.58129223 84.27026562 -111.97167969 84.26074219 C-123.98569947 84.24985778 -135.99964013 84.2533834 -148.01365948 84.264395 C-158.32717056 84.27346976 -168.64066121 84.27475222 -178.954175 84.26951766 C-185.11463344 84.26639901 -191.27505997 84.26598577 -197.43551636 84.27259064 C-203.22704116 84.27836618 -209.0184784 84.27436327 -214.80999374 84.26280212 C-216.93605275 84.26015667 -219.06211912 84.26091867 -221.1881752 84.26532745 C-224.08917281 84.27078877 -226.98988946 84.26394148 -229.89086914 84.25396729 C-231.15420027 84.26065945 -231.15420027 84.26065945 -232.44305325 84.26748681 C-237.0233753 84.23692147 -240.68699882 83.74623657 -245 82 C-242.39216584 81.0611797 -240.82004877 81.02800803 -238.04563904 81.45982361 C-232.99046038 82.23398381 -227.93672363 82.17684004 -222.83227539 82.20532227 C-221.72909973 82.21522186 -220.62592407 82.22512146 -219.48931885 82.23532104 C-215.85878615 82.26679842 -212.2282404 82.29163893 -208.59765625 82.31640625 C-206.0741696 82.33698766 -203.55068631 82.35798444 -201.02720642 82.37937927 C-195.07403877 82.42885182 -189.12084871 82.47414869 -183.16763347 82.51740164 C-176.38643284 82.56690487 -169.60527889 82.62177417 -162.8241235 82.67708123 C-148.88279263 82.79066708 -134.94141688 82.89755641 -121 83 C-121.639375 82.071875 -122.27875 81.14375 -122.9375 80.1875 C-125.95125355 75.52988088 -126.78648704 71.4683981 -126 66 C-124.02451251 59.91935314 -121.52463722 56.20872481 -116.25 52.625 C-113.6217419 50.54157152 -112.22204592 49.01549863 -111.49755859 45.70214844 C-110.83320665 39.80670453 -110.858681 33.92409259 -111 28 C-113.97 28 -116.94 28 -120 28 C-120 25.03 -120 22.06 -120 19 C-113.4 19 -106.8 19 -100 19 C-99.67 28.57 -99.34 38.14 -99 48 C-98.01 46.68 -97.02 45.36 -96 44 C-96.66096786 41.34754398 -96.66096786 41.34754398 -98 39 C-99.73704155 35.5259169 -99.46041616 31.79843331 -99 28 C-96.74389863 23.48779725 -94.48512709 21.21560246 -90 19 C-87.0456543 18.65942383 -87.0456543 18.65942383 -83.82421875 18.70703125 C-82.08881836 18.7215332 -82.08881836 18.7215332 -80.31835938 18.73632812 C-78.52108398 18.7740332 -78.52108398 18.7740332 -76.6875 18.8125 C-74.8612207 18.83280273 -74.8612207 18.83280273 -72.99804688 18.85351562 C-69.99824655 18.88880739 -66.99935025 18.93811519 -64 19 C-64 21.97 -64 24.94 -64 28 C-64.62567871 28.01981934 -65.25135742 28.03963867 -65.89599609 28.06005859 C-68.72276519 28.15514226 -71.54877815 28.26488746 -74.375 28.375 C-75.35984375 28.4059375 -76.3446875 28.436875 -77.359375 28.46875 C-78.77089844 28.52675781 -78.77089844 28.52675781 -80.2109375 28.5859375 C-81.51490479 28.63306885 -81.51490479 28.63306885 -82.84521484 28.68115234 C-85.20961794 28.81229433 -85.20961794 28.81229433 -87 31 C-86.71016731 34.30683466 -86.71016731 34.30683466 -85 37 C-83.51361008 37.15655027 -82.02050873 37.25066943 -80.52734375 37.31640625 C-79.17866211 37.37924805 -79.17866211 37.37924805 -77.80273438 37.44335938 C-76.85720703 37.48267578 -75.91167969 37.52199219 -74.9375 37.5625 C-73.5134082 37.62727539 -73.5134082 37.62727539 -72.06054688 37.69335938 C-69.70718647 37.79979276 -67.35371646 37.90181008 -65 38 C-64.8659375 37.071875 -64.731875 36.14375 -64.59375 35.1875 C-63.69123224 30.34240468 -61.74116983 27.32911363 -57.8046875 24.32421875 C-49.71207244 18.87276262 -49.71207244 18.87276262 -43.81591797 18.88647461 C-42.73494843 18.88655014 -41.65397888 18.88662567 -40.54025269 18.88670349 C-38.78396042 18.89444542 -38.78396042 18.89444542 -36.9921875 18.90234375 C-35.79643097 18.9037587 -34.60067444 18.90517365 -33.36868286 18.90663147 C-29.53743013 18.91224337 -25.70623516 18.92479792 -21.875 18.9375 C-19.28255293 18.94251347 -16.69010494 18.94707664 -14.09765625 18.95117188 C-7.73175102 18.96221667 -1.36587963 18.97896641 5 19 C4.41825155 13.6913151 4.41825155 13.6913151 2 9 C1.62633887 7.00714063 1.29259485 5.00636471 1 3 C0.67 2.01 0.34 1.02 0 0 Z " fill="#7DD856" transform="translate(304,185)"/>
<path d="M0 0 C3.9998593 -0.08783475 7.99946704 -0.14067102 12 -0.1875 C13.12535156 -0.21263672 14.25070313 -0.23777344 15.41015625 -0.26367188 C24.3552927 -0.34213798 31.23708824 0.61280556 38 7 C39.37368345 8.63356951 40.71937515 10.2925002 42 12 C42.40089844 11.46890625 42.80179687 10.9378125 43.21484375 10.390625 C47.46227355 5.11263967 51.2981131 1.56705885 58 0 C67.80114954 -0.97786698 75.86940986 -0.4012928 83.75 5.6875 C88.25279694 9.79964332 91.46335315 15.77720515 92.23828125 21.875 C92.52254039 30.01378804 90.42666911 37.80835231 84.875 43.9375 C78.25520127 49.78428614 70.68780894 51.76746609 61.96484375 51.453125 C54.61503906 50.32983469 48.77800748 46.57434206 44 41 C43.67 43.97 43.34 46.94 43 50 C38.21120818 50.34070456 34.2240045 50.51784806 29.75 48.625 C27.05083594 46.04852522 25.89754852 44.06951339 24.1875 40.8125 C22.19834134 37.07426502 22.19834134 37.07426502 18.62109375 35.12890625 C15.85868607 34.79272783 15.85868607 34.79272783 12 35 C12 39.95 12 44.9 12 50 C8.04 50 4.08 50 0 50 C-0.33 42.74 -0.66 35.48 -1 28 C-3.475 30.475 -3.475 30.475 -6 33 C-12.52900311 37.12311019 -18.4718846 36.21305987 -26 36 C-26 40.62 -26 45.24 -26 50 C-29.96 50 -33.92 50 -38 50 C-38 33.83 -38 17.66 -38 1 C-31.5340625 0.87625 -31.5340625 0.87625 -24.9375 0.75 C-22.91870728 0.69537598 -22.91870728 0.69537598 -20.85913086 0.63964844 C-14.01434366 0.57626605 -9.49208643 0.75611503 -4 5 C-2.0625 7.25 -2.0625 7.25 -1 9 C-0.67 6.03 -0.34 3.06 0 0 Z " fill="#222720" transform="translate(92,203)"/>
<path d="M0 0 C6.6 0 13.2 0 20 0 C20.495 14.355 20.495 14.355 21 29 C21.99 27.68 22.98 26.36 24 25 C23.33903214 22.34754398 23.33903214 22.34754398 22 20 C20.26295845 16.5259169 20.53958384 12.79843331 21 9 C23.25610137 4.48779725 25.51487291 2.21560246 30 0 C32.9543457 -0.34057617 32.9543457 -0.34057617 36.17578125 -0.29296875 C37.91118164 -0.2784668 37.91118164 -0.2784668 39.68164062 -0.26367188 C40.87982422 -0.23853516 42.07800781 -0.21339844 43.3125 -0.1875 C45.1387793 -0.16719727 45.1387793 -0.16719727 47.00195312 -0.14648438 C50.00175345 -0.11119261 53.00064975 -0.06188481 56 0 C56 2.97 56 5.94 56 9 C55.37432129 9.01981934 54.74864258 9.03963867 54.10400391 9.06005859 C51.27723481 9.15514226 48.45122185 9.26488746 45.625 9.375 C44.64015625 9.4059375 43.6553125 9.436875 42.640625 9.46875 C41.69960937 9.50742188 40.75859375 9.54609375 39.7890625 9.5859375 C38.91975098 9.6173584 38.05043945 9.6487793 37.15478516 9.68115234 C34.79038206 9.81229433 34.79038206 9.81229433 33 12 C33.28983269 15.30683466 33.28983269 15.30683466 35 18 C36.48638992 18.15655027 37.97949127 18.25066943 39.47265625 18.31640625 C40.37177734 18.35830078 41.27089844 18.40019531 42.19726562 18.44335938 C43.14279297 18.48267578 44.08832031 18.52199219 45.0625 18.5625 C46.4865918 18.62727539 46.4865918 18.62727539 47.93945312 18.69335938 C50.29281353 18.79979276 52.64628354 18.90181008 55 19 C55.1340625 18.071875 55.268125 17.14375 55.40625 16.1875 C56.30876776 11.34240468 58.25883017 8.32911363 62.1953125 5.32421875 C70.28805547 -0.12732354 70.28805547 -0.12732354 76.00048828 -0.11352539 C77.56188034 -0.11341209 77.56188034 -0.11341209 79.15481567 -0.11329651 C80.28192963 -0.10813522 81.40904358 -0.10297394 82.5703125 -0.09765625 C83.72167694 -0.0962413 84.87304138 -0.09482635 86.05929565 -0.09336853 C89.74788986 -0.08775716 93.43642405 -0.0752027 97.125 -0.0625 C99.62109288 -0.05748647 102.1171867 -0.05292331 104.61328125 -0.04882812 C110.74220809 -0.03778403 116.87109976 -0.0210348 123 0 C123 2.97 123 5.94 123 9 C118.38 9 113.76 9 109 9 C109.14026303 13.45857367 109.28694494 17.91677242 109.4375 22.375 C109.47681641 23.64601562 109.51613281 24.91703125 109.55664062 26.2265625 C109.59853516 27.43828125 109.64042969 28.65 109.68359375 29.8984375 C109.72025146 31.01911621 109.75690918 32.13979492 109.79467773 33.29443359 C109.82596013 35.96712771 109.82596013 35.96712771 111 38 C114.02934491 38.65772428 114.02934491 38.65772428 117 39 C117 42.3 117 45.6 117 49 C110.52522416 49.39241066 107.17558802 49.31299002 102 45 C101.4225 44.525625 100.845 44.05125 100.25 43.5625 C97.07301664 39.5912708 96.75784826 35.54700866 96.8046875 30.60546875 C96.81113281 29.40341797 96.81757813 28.20136719 96.82421875 26.96289062 C96.84935547 25.09407227 96.84935547 25.09407227 96.875 23.1875 C96.88402344 21.92228516 96.89304687 20.65707031 96.90234375 19.35351562 C96.92587606 16.23548436 96.95875455 13.11783903 97 10 C93.43658719 10.0811599 89.87485044 10.19397861 86.3125 10.3125 C84.80139648 10.34633789 84.80139648 10.34633789 83.25976562 10.38085938 C76.12108387 10.5687753 76.12108387 10.5687753 70 14 C66.60337655 17.86512324 66.54587517 21.62567897 66.71484375 26.5625 C67.1117148 29.954932 68.02960934 32.21427527 70 35 C73.91083952 37.89122779 76.99958464 38.44442347 81.8125 38.6875 C83.55466797 38.78611328 83.55466797 38.78611328 85.33203125 38.88671875 C86.21246094 38.92410156 87.09289062 38.96148437 88 39 C88 42.3 88 45.6 88 49 C77.87215861 49.42264562 69.80580446 49.34892896 61.6875 42.8125 C57.91287351 39.27143323 55.94316369 35.77694408 54 31 C54 30.34 54 29.68 54 29 C44.1 29.495 44.1 29.495 34 30 C33.2790955 33.98171738 33.2790955 33.98171738 33 38 C40.59 38.33 48.18 38.66 56 39 C56 42.3 56 45.6 56 49 C52.00039101 49.14638209 48.00147942 49.23443323 44 49.3125 C42.87464844 49.35439453 41.74929687 49.39628906 40.58984375 49.43945312 C34.22471979 49.53251049 29.79175133 49.1280417 24.48828125 45.47338867 C22.79682858 43.79886162 21.94175488 42.17258907 21 40 C20.97421875 41.08539063 20.9484375 42.17078125 20.921875 43.2890625 C20.86556262 44.73441349 20.808216 46.17972444 20.75 47.625 C20.72873047 48.69427734 20.72873047 48.69427734 20.70703125 49.78515625 C20.47278171 54.89179619 19.35501622 57.94393561 16 62 C13.75 62.875 13.75 62.875 12 63 C10.68 61.02 9.36 59.04 8 57 C8.33 56.34 8.66 55.68 9 55 C9.23172827 52.45384991 9.41894529 49.92603775 9.5625 47.375 C9.60568359 46.66859375 9.64886719 45.9621875 9.69335938 45.234375 C9.79944751 43.48981463 9.90022889 41.74493303 10 40 C6.25380294 43.34433765 6.25380294 43.34433765 4.90234375 47.9453125 C4.91394531 48.66460937 4.92554688 49.38390625 4.9375 50.125 C4.958125 51.40375 4.97875 52.6825 5 54 C4.01 54 3.02 54 2 54 C2.33 55.32 2.66 56.64 3 58 C3.66 58 4.32 58 5 58 C5 58.66 5 59.32 5 60 C5.61875 60.144375 6.2375 60.28875 6.875 60.4375 C9 61 9 61 11 62 C11 62.66 11 63.32 11 64 C5.46520217 64.28628265 1.71406489 64.28888248 -3 61 C-5.6104414 57.25836732 -6.62161401 53.79902955 -6.40234375 49.203125 C-5.4152555 43.79809806 -3.1682918 38.61241393 1.30078125 35.2890625 C2.10902344 34.73992187 2.91726562 34.19078125 3.75 33.625 C6.3782581 31.54157152 7.77795408 30.01549863 8.50244141 26.70214844 C9.16679335 20.80670453 9.141319 14.92409259 9 9 C6.03 9 3.06 9 0 9 C0 6.03 0 3.06 0 0 Z " fill="#222620" transform="translate(184,204)"/>
<path d="M0 0 C4.95 -0.0825 9.9 -0.165 15 -0.25 C17.31837891 -0.30462402 17.31837891 -0.30462402 19.68359375 -0.36035156 C27.06467369 -0.4198764 32.73694382 -0.32933759 39 4 C42.03661612 8.27024142 42.64702587 11.82379306 42 17 C40 20.25 40 20.25 38 23 C37.65766227 26.10721061 37.65766227 26.10721061 39.9375 28.0625 C40.618125 28.701875 41.29875 29.34125 42 30 C43.72718316 33.45436632 43.35474942 37.21600619 43 41 C41.14915 45.627125 38.29565464 47.60395313 34 50 C31.18391912 50.33632403 28.77498771 50.47203606 25.9765625 50.390625 C25.31422607 50.38659668 24.65188965 50.38256836 23.96948242 50.37841797 C21.52103539 50.35766129 19.07298667 50.30181652 16.625 50.25 C8.395625 50.12625 8.395625 50.12625 0 50 C0 33.5 0 17 0 0 Z M12 11 C12 13.97 12 16.94 12 20 C14.43868168 20.1079859 16.87259133 20.18726589 19.3125 20.25 C20.34793945 20.30027344 20.34793945 20.30027344 21.40429688 20.3515625 C24.65696013 20.4144159 26.53211403 20.37847548 29.10546875 18.296875 C30.47829186 15.54509696 30.47829186 15.54509696 28 11 C22.72 11 17.44 11 12 11 Z M12 30 C12 33.3 12 36.6 12 40 C14.60444348 40.05394705 17.20776998 40.09364469 19.8125 40.125 C20.91948242 40.15013672 20.91948242 40.15013672 22.04882812 40.17578125 C25.91246426 40.21074628 27.70903668 40.19397555 31 38 C31.41666667 35 31.41666667 35 31 32 C29.00896808 29.56164332 29.00896808 29.56164332 25.0859375 29.8046875 C23.51550649 29.81799624 21.94513779 29.84186398 20.375 29.875 C19.57320313 29.88402344 18.77140625 29.89304688 17.9453125 29.90234375 C15.96341477 29.92593777 13.98167019 29.96180935 12 30 Z " fill="#212021" transform="translate(405,203)"/>
<path d="M0 0 C3.96 0 7.92 0 12 0 C12 6.6 12 13.2 12 20 C18.27 20 24.54 20 31 20 C31 13.4 31 6.8 31 0 C34.96 0 38.92 0 43 0 C43 16.5 43 33 43 50 C39.04 50 35.08 50 31 50 C31 43.4 31 36.8 31 30 C24.73 30 18.46 30 12 30 C12 36.6 12 43.2 12 50 C8.04 50 4.08 50 0 50 C0 33.5 0 17 0 0 Z " fill="#202121" transform="translate(317,203)"/>
<path d="M0 0 C5.57282821 5.24501479 11.51833622 11.26242249 13 19 C12.72489758 21.35387068 12.38653338 23.66351374 12 26 C11.86355072 26.85069061 11.72710144 27.70138123 11.58651733 28.57785034 C10.52292919 35.15907817 9.41234212 41.73244269 8.29907227 48.30541992 C7.89179781 50.72419121 7.48944173 53.14379586 7.09204102 55.56420898 C6.51499866 59.074928 5.92129986 62.5824842 5.32421875 66.08984375 C5.15113693 67.16403061 4.97805511 68.23821747 4.79972839 69.34495544 C3.53802815 76.61475549 2.03147346 83.12010021 -3.5 88.375 C-7.12349412 90.73027118 -9.75297628 92.24910241 -14.12989616 92.25447559 C-15.35896401 92.26322388 -15.35896401 92.26322388 -16.61286151 92.27214891 C-17.50759933 92.26836958 -18.40233715 92.26459026 -19.32418823 92.26069641 C-20.27892379 92.26452196 -21.23365935 92.26834751 -22.21732628 92.27228898 C-25.42472494 92.28262895 -28.63194491 92.2786249 -31.83935547 92.2746582 C-34.13560146 92.27900414 -36.431846 92.28418689 -38.72808838 92.29014587 C-44.97187319 92.30356029 -51.21559756 92.30411179 -57.45939398 92.30158257 C-62.66828212 92.30051445 -67.87715796 92.3053922 -73.08604348 92.310188 C-86.07629058 92.32192707 -99.06649904 92.32105329 -112.05674781 92.31463119 C-123.33656327 92.30946284 -134.61629235 92.32071471 -145.89609073 92.33972941 C-157.47888288 92.35910512 -169.06163046 92.36707275 -180.64443886 92.36360615 C-187.14700148 92.36179111 -193.649485 92.36445153 -200.15203476 92.37832069 C-206.26694501 92.39087444 -212.38168214 92.38897807 -218.49658966 92.37590981 C-220.74197828 92.37353908 -222.98737899 92.37629639 -225.23275375 92.38453293 C-228.29598616 92.39495996 -231.35863335 92.38693191 -234.42184448 92.3742218 C-235.75725904 92.38528323 -235.75725904 92.38528323 -237.11965168 92.39656812 C-242.9777076 92.34537162 -247.06486102 91.30209333 -251.79077148 87.59545898 C-256.52557206 82.37099455 -257.71237127 76.85846689 -259.0625 70.0625 C-259.30363525 68.92820557 -259.54477051 67.79391113 -259.79321289 66.62524414 C-260.29300685 64.26402441 -260.78405447 61.90093744 -261.26660156 59.53613281 C-261.97826874 56.10477884 -262.74163573 52.6894182 -263.5234375 49.2734375 C-263.99564935 47.16164993 -264.46703842 45.04967818 -264.9375 42.9375 C-265.16123291 41.97013916 -265.38496582 41.00277832 -265.61547852 40.00610352 C-266.84435797 34.28317935 -267.69228468 28.72038896 -266 23 C-264.44897461 20.74584961 -264.44897461 20.74584961 -263 19 C-263.12656982 19.6607251 -263.25313965 20.3214502 -263.38354492 21.00219727 C-264.8794158 31.96924109 -262.39747775 42.04890891 -260.02270508 52.73168945 C-259.30974094 55.9499542 -258.63058046 59.17407794 -257.95507812 62.40039062 C-257.50978782 64.4639689 -257.06258924 66.52713653 -256.61328125 68.58984375 C-256.41205154 69.54616196 -256.21082184 70.50248016 -256.00349426 71.48777771 C-254.57804041 77.79329354 -252.91582341 82.43760973 -247.9375 86.8125 C-243.46881476 89.5513716 -238.92963465 89.14536662 -233.87199402 89.14044189 C-232.45342298 89.14489858 -232.45342298 89.14489858 -231.00619394 89.1494453 C-227.82337499 89.15814724 -224.64059359 89.15964181 -221.45776367 89.16113281 C-219.18137023 89.16575991 -216.90497757 89.17078442 -214.62858582 89.17617798 C-208.43434356 89.18931399 -202.24011215 89.19574922 -196.04585814 89.20018864 C-192.17816188 89.20311728 -188.31046859 89.20722168 -184.44277382 89.21169281 C-173.73429928 89.2238029 -163.02582838 89.23418466 -152.31734753 89.2375679 C-151.63197645 89.23778747 -150.94660538 89.23800703 -150.24046548 89.23823325 C-149.20994916 89.23856067 -149.20994916 89.23856067 -148.15861434 89.2388947 C-146.7664688 89.23933817 -145.37432327 89.23978473 -143.98217773 89.24023438 C-143.29162547 89.2404558 -142.60107321 89.24067723 -141.88959513 89.24090537 C-130.70025186 89.24485336 -119.51097371 89.26230749 -108.32165559 89.2855939 C-96.83382018 89.30930859 -85.34602673 89.32151182 -73.85816556 89.32293582 C-67.40811841 89.32398522 -60.95816311 89.32992175 -54.50813866 89.34775543 C-48.44167708 89.364202 -42.37537672 89.36640817 -36.30890083 89.35761642 C-34.0812474 89.35684423 -31.85358541 89.36121262 -29.62595367 89.37107468 C-26.58676146 89.38374146 -23.5481448 89.37794584 -20.50895691 89.36749268 C-19.62578031 89.37554908 -18.74260372 89.38360548 -17.83266419 89.39190602 C-11.69764408 89.34249677 -7.47275885 88.22070259 -2.77734375 84.00390625 C-0.14185228 79.54963605 0.5378354 74.99464033 1.4375 69.9375 C1.64141357 68.84928955 1.84532715 67.7610791 2.05541992 66.63989258 C2.48922628 64.30998333 2.91617705 61.97878912 3.33691406 59.64648438 C4.01059848 55.94171616 4.71743449 52.24440554 5.4296875 48.546875 C5.89188637 46.09398735 6.35285389 43.6408673 6.8125 41.1875 C7.14109009 39.48291626 7.14109009 39.48291626 7.47631836 37.74389648 C10.03564926 25.70058774 10.03564926 25.70058774 8 14 C6.27560249 22.28800399 4.6952033 30.58710943 3.28125 38.93359375 C3.13558594 39.78925934 2.98992187 40.64492493 2.83984375 41.52651978 C2.23918838 45.06043316 1.64014698 48.59455489 1.05224609 52.13061523 C0.61494326 54.75371536 0.16762135 57.37495186 -0.28125 59.99609375 C-0.40947144 60.78269882 -0.53769287 61.56930389 -0.6697998 62.37974548 C-2.11461695 70.7202351 -3.92081042 76.96590963 -11 82 C-11.66 81.67 -12.32 81.34 -13 81 C-12.67 79.68 -12.34 78.36 -12 77 C-10.35 76.67 -8.7 76.34 -7 76 C-7 74.02 -7 72.04 -7 70 C-8.60875 69.814375 -8.60875 69.814375 -10.25 69.625 C-15.02154158 68.82974307 -16.9510506 68.07729939 -20.3125 64.625 C-22 62 -22 62 -21.75 59.6875 C-21.5025 59.130625 -21.255 58.57375 -21 58 C-20.62875 58.7425 -20.2575 59.485 -19.875 60.25 C-17.19651578 64.17844352 -14.36859516 66.53556958 -9.609375 67.46875 C-7.41317304 67.71737664 -5.20618232 67.86629198 -3 68 C-3 64.7 -3 61.4 -3 58 C-3.94875 58.061875 -4.8975 58.12375 -5.875 58.1875 C-6.90625 58.125625 -7.9375 58.06375 -9 58 C-11.36008817 54.45986775 -11.23463644 52.98878045 -11.1953125 48.80078125 C-11.18564453 46.98803711 -11.18564453 46.98803711 -11.17578125 45.13867188 C-11.15064453 43.2447168 -11.15064453 43.2447168 -11.125 41.3125 C-11.11597656 40.03826172 -11.10695313 38.76402344 -11.09765625 37.45117188 C-11.07405722 34.30070146 -11.03818579 31.15032738 -11 28 C-6.38 28 -1.76 28 3 28 C3 25.03 3 22.06 3 19 C3.66 19 4.32 19 5 19 C4.41825155 13.6913151 4.41825155 13.6913151 2 9 C1.62633887 7.00714063 1.29259485 5.00636471 1 3 C0.67 2.01 0.34 1.02 0 0 Z " fill="#73B281" transform="translate(304,185)"/>
<path d="M0 0 C3.96 0 7.92 0 12 0 C12.01981934 0.97348389 12.03963867 1.94696777 12.06005859 2.94995117 C12.13635367 6.57504351 12.22503336 10.19974694 12.31738281 13.82446289 C12.35557409 15.39079081 12.39044394 16.95720349 12.421875 18.52368164 C12.46774071 20.780418 12.52569769 23.03657583 12.5859375 25.29296875 C12.59748871 25.98899704 12.60903992 26.68502533 12.62094116 27.40214539 C12.739181 31.33147745 13.14846229 34.50494886 15 38 C17.94877547 39.80202945 19.67046319 40.01977221 23.125 39.8125 C26.26430417 38.92530534 27.16732426 38.63865538 29 36 C29.3189931 33.29061551 29.46475031 30.79838883 29.4765625 28.0859375 C29.49993179 26.93056992 29.49993179 26.93056992 29.52377319 25.75186157 C29.57129489 23.29291778 29.59906251 20.83425824 29.625 18.375 C29.66145103 15.90879986 29.70201562 13.44276229 29.74765015 10.97671509 C29.77494545 9.44212337 29.79626676 7.90741206 29.81118774 6.37265015 C29.88933798 1.11066202 29.88933798 1.11066202 31 0 C32.83115883 -0.09851171 34.66619933 -0.12972629 36.5 -0.125 C37.5003125 -0.12757813 38.500625 -0.13015625 39.53125 -0.1328125 C42 0 42 0 43 1 C43.24454338 5.41363746 43.22861894 9.83325612 43.24023438 14.25292969 C43.24984045 16.46328821 43.28079926 18.67267651 43.3125 20.8828125 C43.37843076 29.59994607 43.41763607 37.60589648 37.8125 44.8125 C31.65990049 49.59785517 26.66289165 51.72605614 18.7421875 51.375 C12.1712635 50.4764121 7.62090265 48.24656489 3.5 43 C-0.13528271 37.82982015 -0.14055076 33.14416326 -0.09765625 26.953125 C-0.0962413 26.18192322 -0.09482635 25.41072144 -0.09336853 24.6161499 C-0.08778534 22.16072662 -0.07523595 19.70539558 -0.0625 17.25 C-0.05748283 15.58203257 -0.0529203 13.91406371 -0.04882812 12.24609375 C-0.03782141 8.16402713 -0.02056836 4.08202919 0 0 Z " fill="#222222" transform="translate(361,203)"/>
<path d="M0 0 C6.55129589 4.33601233 9.55710383 9.67131149 12 17 C13.00505079 24.90859636 11.09142737 32.56376072 6.52734375 39.11328125 C1.49917176 44.66447822 -4.59914874 47.38376455 -11.95703125 48.4140625 C-19.32533168 48.77349179 -24.98750905 47.31985533 -31 43 C-35.84928042 38.53758239 -39.82260114 33.99147433 -40.125 27.1875 C-40.08375 26.465625 -40.0425 25.74375 -40 25 C-39.67 25.99 -39.34 26.98 -39 28 C-38.34 28 -37.68 28 -37 28 C-36.67 27.01 -36.34 26.02 -36 25 C-35.67 25.99 -35.34 26.98 -35 28 C-34.566875 27.236875 -34.13375 26.47375 -33.6875 25.6875 C-32.25069203 23.39925026 -30.92712338 21.8407537 -29 20 C-28.89042969 20.59167969 -28.78085938 21.18335938 -28.66796875 21.79296875 C-27.38310991 28.34025694 -27.38310991 28.34025694 -24 34 C-19.60682104 36.89550431 -16.21531417 37.55878366 -11 37 C-6.82280705 35.68950809 -4.74827206 34.11493885 -2.625 30.375 C-0.67635786 25.92096082 -0.1210848 21.79408291 -1 17 C-3.19149542 12.61700917 -5.40190962 9.79925276 -10 8 C-14.1067217 7.38089623 -18.10709169 7.00622314 -21.875 8.984375 C-24.69370386 11.26752512 -26.99304612 13.98956917 -29 17 C-28.75 14.125 -28.75 14.125 -28 11 C-25.9375 9.625 -25.9375 9.625 -24 9 C-24.33 7.35 -24.66 5.7 -25 4 C-26.32 4 -27.64 4 -29 4 C-29.99 5.485 -29.99 5.485 -31 7 C-31 6.34 -31 5.68 -31 5 C-31.99 4.67 -32.98 4.34 -34 4 C-24.77456508 -4.10720038 -11.00233758 -6.55195384 0 0 Z " fill="#21271E" transform="translate(172,206)"/>
<path d="M0 0 C4.08375 -0.061875 8.1675 -0.12375 12.375 -0.1875 C13.66196777 -0.21481201 14.94893555 -0.24212402 16.27490234 -0.27026367 C17.28504395 -0.27775635 18.29518555 -0.28524902 19.3359375 -0.29296875 C20.37282715 -0.3086792 21.4097168 -0.32438965 22.47802734 -0.34057617 C23.31027832 -0.22818604 24.1425293 -0.1157959 25 0 C25.66 0.99 26.32 1.98 27 3 C24 5 24 5 22 5 C21.67 6.32 21.34 7.64 21 9 C21.639375 9.28875 22.27875 9.5775 22.9375 9.875 C25 11 25 11 26 13 C26.57089084 19.16562108 26.57089084 19.16562108 24.375 22.375 C21.56154387 24.2999963 19.3666837 24.69393785 16 25 C16.33 26.65 16.66 28.3 17 30 C15.02 30.99 15.02 30.99 13 32 C12.67 31.67 12.34 31.34 12 31 C10.81318274 34.56045177 10.90310168 37.43808337 10.9375 41.1875 C10.94652344 42.45980469 10.95554687 43.73210937 10.96484375 45.04296875 C10.97644531 46.01878906 10.98804687 46.99460938 11 48 C10.34 47.67 9.68 47.34 9 47 C6.03 47 3.06 47 0 47 C0 31.49 0 15.98 0 0 Z " fill="#232623" transform="translate(55,205)"/>
<path d="M0 0 C4.83763525 2.32923179 7.63619663 5.18147775 10 10 C11.01184823 15.56516525 10.10807477 20.36546493 7.328125 25.26953125 C4.22812475 29.30864922 0.5291225 30.78155393 -4.5 31.5 C-9.53790499 30.78029929 -13.2586614 29.31495603 -16.328125 25.234375 C-19.04286768 20.37842682 -19.62142799 16.5040765 -19 11 C-15.67794873 1.58752141 -9.5213516 -1.65925834 0 0 Z " fill="#7DD458" transform="translate(162,213)"/>
<path d="M0 0 C2.33944736 0.28730055 4.6739143 0.61936779 7 1 C6.01 1.33 5.02 1.66 4 2 C4.2475 2.5775 4.495 3.155 4.75 3.75 C4.87375 4.86375 4.87375 4.86375 5 6 C4.38125 6.598125 3.7625 7.19625 3.125 7.8125 C0.68698156 9.8882882 0.68698156 9.8882882 0.5625 13.25 C-0.12978874 17.86525825 -1.86208023 21.50838407 -5 25 C-6.66666667 25 -8.33333333 25 -10 25 C-9.34 27.97 -8.68 30.94 -8 34 C-10.75 34.375 -10.75 34.375 -14 34 C-16.375 31 -16.375 31 -18 28 C-16.99427562 25.8338244 -16.01887724 24.02294688 -14.49609375 22.171875 C-12.80604765 19.71843993 -12.36489671 17.92156584 -11.875 15 C-10.20443131 5.386903 -10.20443131 5.386903 -6 2 C-3.3125 1.3125 -3.3125 1.3125 -1 1 C-0.67 0.67 -0.34 0.34 0 0 Z " fill="#222221" transform="translate(143,209)"/>
<path d="M0 0 C0.90879488 2.96595458 0.97797513 5.02643649 0.44067383 8.06567383 C-0.26019834 13.62818627 0.7565027 18.51588606 1.94921875 23.94921875 C2.16310745 24.96546829 2.37699615 25.98171783 2.59736633 27.02876282 C3.0505218 29.16394473 3.51061441 31.29766501 3.97729492 33.42993164 C4.68681158 36.68434237 5.36725926 39.94390347 6.04492188 43.20507812 C6.4904614 45.2868285 6.93767041 47.36822243 7.38671875 49.44921875 C7.58794846 50.41808517 7.78917816 51.3869516 7.99650574 52.38517761 C9.41337989 58.74279496 11.04589632 63.4039695 16.0625 67.8125 C20.11053249 70.29355217 24.00488611 70.16904916 28.5925293 70.20532227 C29.36349945 70.21522186 30.1344696 70.22512146 30.92880249 70.23532104 C33.47724333 70.26690956 36.02570282 70.291683 38.57421875 70.31640625 C40.3411355 70.33697806 42.10804736 70.3579746 43.87495422 70.37937927 C48.52572667 70.43457645 53.17654336 70.48399612 57.82739258 70.53222656 C62.57311949 70.58245876 67.31878214 70.63813586 72.06445312 70.69335938 C81.37624719 70.80091216 90.68809705 70.90236356 100 71 C99.67 71.66 99.34 72.32 99 73 C88.80334758 73.06957067 78.60675181 73.1228472 68.4099102 73.15543652 C63.67488077 73.17107932 58.94001397 73.1922923 54.20507812 73.22631836 C49.63391653 73.25896121 45.06291117 73.27686344 40.491642 73.28463173 C38.74935574 73.29016639 37.00707783 73.3009743 35.26485825 73.31719017 C32.82075401 73.33903013 30.3772919 73.34196422 27.93310547 73.34057617 C27.21596878 73.351362 26.49883209 73.36214783 25.75996399 73.3732605 C20.32511647 73.3399553 16.47300824 71.93963414 12.20922852 68.59545898 C7.47442794 63.37099455 6.28762873 57.85846689 4.9375 51.0625 C4.69636475 49.92820557 4.45522949 48.79391113 4.20678711 47.62524414 C3.70699315 45.26402441 3.21594553 42.90093744 2.73339844 40.53613281 C2.02173126 37.10477884 1.25836427 33.6894182 0.4765625 30.2734375 C0.00435065 28.16164993 -0.46703842 26.04967818 -0.9375 23.9375 C-1.16123291 22.97013916 -1.38496582 22.00277832 -1.61547852 21.00610352 C-3.21908729 13.53805498 -3.75218099 6.87467237 0 0 Z " fill="#64A489" transform="translate(40,204)"/>
<path d="M0 0 C0.83265381 0.00523682 1.66530762 0.01047363 2.52319336 0.01586914 C3.42231445 0.0190918 4.32143555 0.02231445 5.24780273 0.02563477 C6.66609375 0.03820312 6.66609375 0.03820312 8.11303711 0.05102539 C9.06243164 0.05553711 10.01182617 0.06004883 10.98999023 0.06469727 C13.34356776 0.07652429 15.69702188 0.09300514 18.05053711 0.11352539 C18.86806014 1.69427103 19.67935708 3.27823762 20.48803711 4.86352539 C21.16672852 6.18610352 21.16672852 6.18610352 21.85913086 7.53540039 C22.88509109 9.75551105 23.56562313 11.72797158 24.05053711 14.11352539 C23.39053711 14.11352539 22.73053711 14.11352539 22.05053711 14.11352539 C21.72053711 16.75352539 21.39053711 19.39352539 21.05053711 22.11352539 C17.09226476 22.17138186 13.13410041 22.20707256 9.17553711 22.23852539 C8.04760742 22.2552832 6.91967773 22.27204102 5.75756836 22.28930664 C4.14301758 22.29897461 4.14301758 22.29897461 2.49584961 22.30883789 C1.00335693 22.32454834 1.00335693 22.32454834 -0.51928711 22.34057617 C-2.94946289 22.11352539 -2.94946289 22.11352539 -4.94946289 20.11352539 C3.30053711 20.11352539 11.55053711 20.11352539 20.05053711 20.11352539 C20.05053711 16.81352539 20.05053711 13.51352539 20.05053711 10.11352539 C18.5694043 10.14833008 17.08827148 10.18313477 15.56225586 10.21899414 C13.62086093 10.2471303 11.67945376 10.27443064 9.73803711 10.30102539 C8.27333984 10.33873047 8.27333984 10.33873047 6.77905273 10.37719727 C5.37236328 10.39169922 5.37236328 10.39169922 3.93725586 10.40649414 C3.07318115 10.42220459 2.20910645 10.43791504 1.31884766 10.45410156 C-0.94946289 10.11352539 -0.94946289 10.11352539 -2.77050781 8.79052734 C-3.94946289 7.11352539 -3.94946289 7.11352539 -3.69946289 3.98852539 C-2.69999506 0.15723202 -2.69999506 0.15723202 0 0 Z " fill="#88CC6A" transform="translate(219.949462890625,232.886474609375)"/>
<path d="M0 0 C8.25 0 16.5 0 25 0 C25.33 2.64 25.66 5.28 26 8 C26.33 8.66 26.66 9.32 27 10 C26.22265625 12.3828125 26.22265625 12.3828125 25.0625 15.125 C24.68222656 16.03507812 24.30195313 16.94515625 23.91015625 17.8828125 C23.60980469 18.58148438 23.30945313 19.28015625 23 20 C19.72933434 20.08706892 16.45896635 20.14041241 13.1875 20.1875 C12.25873047 20.21263672 11.32996094 20.23777344 10.37304688 20.26367188 C9.0340332 20.27817383 9.0340332 20.27817383 7.66796875 20.29296875 C6.84578857 20.3086792 6.0236084 20.32438965 5.17651367 20.34057617 C3 20 3 20 1.1965332 18.6418457 C0 17 0 17 0.1875 14.4375 C1 12 1 12 3 10 C5.15478516 9.77294922 5.15478516 9.77294922 7.7890625 9.8046875 C8.73007813 9.81113281 9.67109375 9.81757813 10.640625 9.82421875 C11.62546875 9.84097656 12.6103125 9.85773438 13.625 9.875 C14.61757812 9.88402344 15.61015625 9.89304688 16.6328125 9.90234375 C19.08878134 9.92595884 21.54427168 9.95889201 24 10 C24 7.03 24 4.06 24 1 C16.08 1 8.16 1 0 1 C0 0.67 0 0.34 0 0 Z " fill="#79CB56" transform="translate(216,203)"/>
<path d="M0 0 C0.66 0 1.32 0 2 0 C2 7 2 14 2 21 C3.32 21.33 4.64 21.66 6 22 C5.67 22.99 5.34 23.98 5 25 C-12.10702873 25.04673986 -29.2140375 25.08199858 -46.32111549 25.10362434 C-54.26439169 25.11393286 -62.20762819 25.12798508 -70.15087891 25.15087891 C-77.07495919 25.17082577 -83.99901073 25.18371953 -90.92311895 25.18817699 C-94.58870146 25.19078217 -98.25420172 25.19689665 -101.91975784 25.21146011 C-106.01376226 25.22759359 -110.10762405 25.22797885 -114.20166016 25.22705078 C-116.0207489 25.23783661 -116.0207489 25.23783661 -117.87658691 25.24884033 C-118.99550323 25.246091 -120.11441956 25.24334167 -121.26724243 25.24050903 C-122.23512506 25.24235262 -123.2030077 25.24419621 -124.20022011 25.24609566 C-127.36961535 24.96751147 -130.02751934 24.10829994 -133 23 C-130.39216584 22.0611797 -128.82004877 22.02800803 -126.04563904 22.45982361 C-120.99046038 23.23398381 -115.93672363 23.17684004 -110.83227539 23.20532227 C-109.72909973 23.21522186 -108.62592407 23.22512146 -107.48931885 23.23532104 C-103.85878615 23.26679842 -100.2282404 23.29163893 -96.59765625 23.31640625 C-94.0741696 23.33698766 -91.55068631 23.35798444 -89.02720642 23.37937927 C-83.07403877 23.42885182 -77.12084871 23.47414869 -71.16763347 23.51740164 C-64.38643284 23.56690487 -57.60527889 23.62177417 -50.8241235 23.67708123 C-36.88279263 23.79066708 -22.94141688 23.89755641 -9 24 C-8.67 23.34 -8.34 22.68 -8 22 C-4.37 22.66 -0.74 23.32 3 24 C3 23.34 3 22.68 3 22 C1.02 21.34 -0.96 20.68 -3 20 C-3 19.34 -3 18.68 -3 18 C-3.66 18 -4.32 18 -5 18 C-5.495 16.02 -5.495 16.02 -6 14 C-5.34 13.67 -4.68 13.34 -4 13 C-4.0825 11.96875 -4.165 10.9375 -4.25 9.875 C-3.96047708 5.38739467 -2.84044077 3.4252374 0 0 Z " fill="#7DB168" transform="translate(192,244)"/>
<path d="M0 0 C1.73540039 0.01450195 1.73540039 0.01450195 3.50585938 0.02929688 C4.70404297 0.05443359 5.90222656 0.07957031 7.13671875 0.10546875 C8.96299805 0.12577148 8.96299805 0.12577148 10.82617188 0.14648438 C13.8259722 0.18177614 16.8248685 0.23108394 19.82421875 0.29296875 C19.82421875 3.26296875 19.82421875 6.23296875 19.82421875 9.29296875 C12.89421875 9.29296875 5.96421875 9.29296875 -1.17578125 9.29296875 C-1.17578125 8.63296875 -1.17578125 7.97296875 -1.17578125 7.29296875 C-2.63411483 5.66782407 -2.63411483 5.66782407 -4.17578125 4.29296875 C-3.51578125 3.63296875 -2.85578125 2.97296875 -2.17578125 2.29296875 C-3.16578125 1.96296875 -4.15578125 1.63296875 -5.17578125 1.29296875 C-5.17578125 1.95296875 -5.17578125 2.61296875 -5.17578125 3.29296875 C-6.32046875 3.94265625 -6.32046875 3.94265625 -7.48828125 4.60546875 C-10.59812773 6.55816305 -11.69890067 7.9505548 -13.17578125 11.29296875 C-13.42714158 14.50213046 -13.42714158 14.50213046 -13.17578125 17.29296875 C-12.51578125 17.62296875 -11.85578125 17.95296875 -11.17578125 18.29296875 C-10.58222511 20.94157302 -10.43368856 23.58494197 -10.17578125 26.29296875 C-11.16578125 26.95296875 -12.15578125 27.61296875 -13.17578125 28.29296875 C-12.94890625 27.57109375 -12.72203125 26.84921875 -12.48828125 26.10546875 C-11.87271617 23.24813504 -11.87271617 23.24813504 -13.61328125 21.04296875 C-15.8412555 17.12173408 -15.87639879 13.70685923 -15.17578125 9.29296875 C-11.76237419 2.46615463 -7.55373749 -0.11163159 0 0 Z " fill="#21221F" transform="translate(220.17578125,203.70703125)"/>
<path d="M0 0 C9 0 9 0 11 1 C11 6.28 11 11.56 11 17 C10.34 17.33 9.68 17.66 9 18 C8.53476937 19.89533342 8.53476937 19.89533342 8.375 22.0625 C8.25125 23.361875 8.1275 24.66125 8 26 C5 27 5 27 0 26 C0 17.42 0 8.84 0 0 Z " fill="#7ED956" transform="translate(295,215)"/>
<path d="M0 0 C10.9947644 -0.48328635 10.9947644 -0.48328635 15.25 1.5625 C17.67547804 4.94084442 17.65373541 6.932313 17 11 C15.38671875 13.203125 15.38671875 13.203125 13 15 C8.60786271 15.53045136 4.44112074 15.17764483 0 15 C0 10.05 0 5.1 0 0 Z " fill="#7ACF55" transform="translate(104,213)"/>
<path d="M0 0 C1.918125 -0.0825 3.83625 -0.165 5.8125 -0.25 C7.43091797 -0.31960937 7.43091797 -0.31960937 9.08203125 -0.390625 C12 0 12 0 13.859375 1.796875 C15.54104969 5.04504118 15.44966521 7.40267833 15 11 C13.6875 13.4375 13.6875 13.4375 11 15 C7.26598404 15.32773378 3.7630972 15.1791951 0 15 C0 10.05 0 5.1 0 0 Z " fill="#7ED955" transform="translate(66,214)"/>
<path d="M0 0 C3.0390625 -0.29296875 3.0390625 -0.29296875 6.625 -0.1875 C7.81351562 -0.16042969 9.00203125 -0.13335937 10.2265625 -0.10546875 C11.14179688 -0.07066406 12.05703125 -0.03585938 13 0 C13 0.66 13 1.32 13 2 C8.71 2 4.42 2 0 2 C0.14026303 6.45857367 0.28694494 10.91677242 0.4375 15.375 C0.47681641 16.64601562 0.51613281 17.91703125 0.55664062 19.2265625 C0.59853516 20.43828125 0.64042969 21.65 0.68359375 22.8984375 C0.72025146 24.01911621 0.75690918 25.13979492 0.79467773 26.29443359 C0.82596013 28.96712771 0.82596013 28.96712771 2 31 C5.02934491 31.65772428 5.02934491 31.65772428 8 32 C8 35.3 8 38.6 8 42 C0.4067331 42.46019799 -2.95208255 41.48958401 -8.8125 36.4375 C-11.55251386 33.12064112 -11.11548988 29.44718212 -11.09765625 25.36328125 C-11.09443359 24.06455078 -11.09121094 22.76582031 -11.08789062 21.42773438 C-11.07953531 20.05598892 -11.07107037 18.68424413 -11.0625 17.3125 C-11.05748335 15.92903805 -11.05292073 14.54557437 -11.04882812 13.16210938 C-11.03702529 9.77469605 -11.02056019 6.38736967 -11 3 C-10.34 3 -9.68 3 -9 3 C-9 13.23 -9 23.46 -9 34 C-7.02 34.33 -5.04 34.66 -3 35 C-3 35.99 -3 36.98 -3 38 C-0.03 38.66 2.94 39.32 6 40 C6 38.02 6 36.04 6 34 C5.01 34 4.02 34 3 34 C3 34.99 3 35.98 3 37 C2.34 37 1.68 37 1 37 C0.814375 36.071875 0.814375 36.071875 0.625 35.125 C0.12802644 32.80879168 0.12802644 32.80879168 -2 31 C-2.25878906 28.25024414 -2.25878906 28.25024414 -2.265625 24.78515625 C-2.26949219 22.92020508 -2.26949219 22.92020508 -2.2734375 21.01757812 C-2.26570313 19.71240234 -2.25796875 18.40722656 -2.25 17.0625 C-2.25773437 15.76119141 -2.26546875 14.45988281 -2.2734375 13.11914062 C-2.27085937 11.87455078 -2.26828125 10.62996094 -2.265625 9.34765625 C-2.26336914 8.20304932 -2.26111328 7.05844238 -2.25878906 5.87915039 C-2 3 -2 3 0 0 Z " fill="#1A2C12" transform="translate(293,211)"/>
<path d="M0 0 C0.33 1.32 0.66 2.64 1 4 C1.96386627 3.99777939 2.92773254 3.99555878 3.92080688 3.99327087 C13.01351308 3.97298097 22.10621466 3.95799967 31.19893837 3.94818783 C35.87335785 3.94297387 40.54775902 3.93590322 45.22216797 3.92456055 C49.73496047 3.91367883 54.24773539 3.90771195 58.76054001 3.90512276 C60.48047538 3.90327804 62.20040981 3.89967577 63.92033768 3.89426994 C66.33314326 3.88698938 68.74587657 3.88601202 71.15869141 3.88647461 C71.86647736 3.88287933 72.57426331 3.87928406 73.30349731 3.87557983 C77.30657628 3.88386043 81.07212855 4.22863377 85 5 C85 5.33 85 5.66 85 6 C55.3 6 25.6 6 -5 6 C-5 5.34 -5 4.68 -5 4 C-3.37373596 2.61767557 -1.7074998 1.28062485 0 0 Z " fill="#81C065" transform="translate(202,263)"/>
<path d="M0 0 C2.42047458 0.66771713 3.70057106 1.48445098 4.96875 3.66796875 C6.99455248 8.51676449 6.8291181 11.86963405 6 17 C5.86373703 17.85143082 5.72747406 18.70286163 5.58708191 19.58009338 C4.52152829 26.16028966 3.41222508 32.73313371 2.29907227 39.30541992 C1.89179781 41.72419121 1.48944173 44.14379586 1.09204102 46.56420898 C0.51499866 50.074928 -0.07870014 53.5824842 -0.67578125 57.08984375 C-0.84886307 58.16403061 -1.02194489 59.23821747 -1.20027161 60.34495544 C-2.45922344 67.59891945 -4.00756619 74.00756619 -9.375 79.375 C-12.1828297 81.11318029 -14.82639487 82.11434275 -18 83 C-17.67 82.01 -17.34 81.02 -17 80 C-15.6078125 79.319375 -15.6078125 79.319375 -14.1875 78.625 C-10.45644418 76.72289311 -9.23957156 75.5430022 -7 72 C-5.88458822 68.36709881 -5.22752305 64.67568741 -4.5625 60.9375 C-4.25662964 59.30518433 -4.25662964 59.30518433 -3.94458008 57.63989258 C-3.51077372 55.30998333 -3.08382295 52.97878912 -2.66308594 50.64648438 C-1.98940152 46.94171616 -1.28256551 43.24440554 -0.5703125 39.546875 C-0.10811363 37.09398735 0.35285389 34.6408673 0.8125 32.1875 C1.03156006 31.05111084 1.25062012 29.91472168 1.47631836 28.74389648 C3.26538692 18.92024435 4.94570423 9.06712443 0 0 Z " fill="#358F6D" transform="translate(310,194)"/>
<path d="M0 0 C6.6 0 13.2 0 20 0 C20 1.65 20 3.3 20 5 C19.67 3.68 19.34 2.36 19 1 C13.06 1 7.12 1 1 1 C1 3.31 1 5.62 1 8 C5.455 7.505 5.455 7.505 10 7 C11.9285791 10.85715821 11.48405181 15.56178909 11.6875 19.8125 C11.74744141 20.81087891 11.80738281 21.80925781 11.86914062 22.83789062 C11.91619141 23.80533203 11.96324219 24.77277344 12.01171875 25.76953125 C12.05772217 26.65229736 12.10372559 27.53506348 12.15112305 28.44458008 C11.98078926 31.32484459 11.09365168 33.34803495 10 36 C10 37.32 10 38.64 10 40 C8.68 40.66 7.36 41.32 6 42 C6 39.69 6 37.38 6 35 C3.91864561 34.77379613 3.91864561 34.77379613 2.5625 36.328125 C-2.18264094 42.16464836 -3.2847162 47.60051241 -4 55 C-4.66 55 -5.32 55 -6 55 C-6.65325022 47.94489765 -5.13589843 42.81107925 -1 37 C0.55859841 35.84097436 2.14342331 34.71654971 3.75 33.625 C6.3782581 31.54157152 7.77795408 30.01549863 8.50244141 26.70214844 C9.16679335 20.80670453 9.141319 14.92409259 9 9 C6.03 9 3.06 9 0 9 C0 6.03 0 3.06 0 0 Z " fill="#1D3316" transform="translate(184,204)"/>
<path d="M0 0 C0.99 0.33 1.98 0.66 3 1 C4.40664926 1.14492123 5.8181133 1.24628931 7.23046875 1.31640625 C8.43413086 1.37924805 8.43413086 1.37924805 9.66210938 1.44335938 C10.49548828 1.48267578 11.32886719 1.52199219 12.1875 1.5625 C13.03248047 1.60568359 13.87746094 1.64886719 14.74804688 1.69335938 C16.83184433 1.79931518 18.91590103 1.9001502 21 2 C21 4.31 21 6.62 21 9 C17.95809137 9.05421223 14.91716001 9.09377548 11.875 9.125 C11.0190625 9.14175781 10.163125 9.15851563 9.28125 9.17578125 C4.43412707 9.21306681 0.55292095 8.89580643 -4 7 C-3.34 5.35 -2.68 3.7 -2 2 C-1.34 2 -0.68 2 0 2 C0 1.34 0 0.68 0 0 Z " fill="#202321" transform="translate(218,242)"/>
<path d="M0 0 C0.90879488 2.96595458 0.97797513 5.02643649 0.44067383 8.06567383 C-0.26019834 13.62818627 0.7565027 18.51588606 1.94921875 23.94921875 C2.16310745 24.96546829 2.37699615 25.98171783 2.59736633 27.02876282 C3.0505218 29.16394473 3.51061441 31.29766501 3.97729492 33.42993164 C4.68681158 36.68434237 5.36725926 39.94390347 6.04492188 43.20507812 C6.4904614 45.2868285 6.93767041 47.36822243 7.38671875 49.44921875 C7.58794846 50.41808517 7.78917816 51.3869516 7.99650574 52.38517761 C9.41337989 58.74279496 11.04589632 63.4039695 16.0625 67.8125 C18.09005326 69.15564537 18.09005326 69.15564537 21 70 C21 70.66 21 71.32 21 72 C17.86398461 72 15.70811386 71.57459843 13.24291992 69.57421875 C7.91912495 63.87505162 6.32899881 58.55549015 4.875 51 C4.63837646 49.87021729 4.40175293 48.74043457 4.15795898 47.57641602 C3.66774132 45.22634622 3.18759354 42.87415449 2.71728516 40.52001953 C2.01902788 37.09337781 1.26100123 33.68608722 0.48046875 30.27734375 C0.00709159 28.16422387 -0.46559383 26.05094887 -0.9375 23.9375 C-1.16131348 22.97005859 -1.38512695 22.00261719 -1.61572266 21.00585938 C-3.21883158 13.53774969 -3.75219107 6.87469083 0 0 Z " fill="#38976D" transform="translate(40,204)"/>
<path d="M0 0 C1.87939453 -0.2487793 1.87939453 -0.2487793 4.1328125 -0.07421875 C5.34130859 0.00795898 5.34130859 0.00795898 6.57421875 0.09179688 C7.41597656 0.16462891 8.25773438 0.23746094 9.125 0.3125 C10.39923828 0.4043457 10.39923828 0.4043457 11.69921875 0.49804688 C13.80053665 0.65151391 15.90045124 0.82397722 18 1 C18.99 3.31 19.98 5.62 21 8 C13.74 8 6.48 8 -1 8 C-1.33 6.35 -1.66 4.7 -2 3 C-1.34 2.01 -0.68 1.02 0 0 Z " fill="#7DD558" transform="translate(218,233)"/>
<path d="M0 0 C0.66 0 1.32 0 2 0 C2 7 2 14 2 21 C3.32 21.33 4.64 21.66 6 22 C5.67 22.99 5.34 23.98 5 25 C1.37 25 -2.26 25 -6 25 C-5.67 24.34 -5.34 23.68 -5 23 C-2.36 23.33 0.28 23.66 3 24 C3 23.34 3 22.68 3 22 C1.02 21.34 -0.96 20.68 -3 20 C-3 19.34 -3 18.68 -3 18 C-3.66 18 -4.32 18 -5 18 C-5.33 16.68 -5.66 15.36 -6 14 C-5.34 13.67 -4.68 13.34 -4 13 C-4.0825 11.96875 -4.165 10.9375 -4.25 9.875 C-3.96047708 5.38739467 -2.84044077 3.4252374 0 0 Z " fill="#282A26" transform="translate(192,244)"/>
<path d="M0 0 C0.99 0.66 1.98 1.32 3 2 C3 2.66 3 3.32 3 4 C-33.96 4 -70.92 4 -109 4 C-109 3.67 -109 3.34 -109 3 C-73.03 3 -37.06 3 0 3 C0 2.01 0 1.02 0 0 Z " fill="#85D363" transform="translate(180,264)"/>
<path d="M0 0 C0.33 0 0.66 0 1 0 C1.06058594 0.96421875 1.12117187 1.9284375 1.18359375 2.921875 C1.26738281 4.18515625 1.35117188 5.4484375 1.4375 6.75 C1.55931641 8.62945312 1.55931641 8.62945312 1.68359375 10.546875 C1.88732569 13.79003775 1.88732569 13.79003775 2.52734375 16.0390625 C3.21912146 18.90908242 3.13164979 21.679142 3.125 24.625 C3.12757813 25.77226562 3.13015625 26.91953125 3.1328125 28.1015625 C3 31 3 31 2 33 C3.98 32.505 3.98 32.505 6 32 C5.60167969 32.49628906 5.20335937 32.99257812 4.79296875 33.50390625 C1.40115025 37.85302633 -1.06315984 41.8350929 -3 47 C-3.66 46.34 -4.32 45.68 -5 45 C-7.10820797 45.3185177 -7.10820797 45.3185177 -9 46 C-8.0925 45.071875 -7.185 44.14375 -6.25 43.1875 C-1.05174112 37.09001624 1.80337062 29.23319123 1.38671875 21.1875 C0.14925041 14.18767909 -3.756667 8.53990697 -8 3 C-5.69 3.66 -3.38 4.32 -1 5 C-0.67 3.35 -0.34 1.7 0 0 Z " fill="#80C363" transform="translate(182,204)"/>
<path d="M0 0 C6.4659375 -0.12375 6.4659375 -0.12375 13.0625 -0.25 C15.08129272 -0.30462402 15.08129272 -0.30462402 17.14086914 -0.36035156 C23.9941256 -0.42381238 28.49127832 -0.22726019 34 4 C36 6.0625 36 6.0625 37 8 C36.67 8.99 36.34 9.98 36 11 C35.34 10.01 34.68 9.02 34 8 C33.01 7.67 32.02 7.34 31 7 C30.3125 4.9375 30.3125 4.9375 30 3 C26.68973391 2.02700338 23.58290092 1.80653218 20.140625 1.68359375 C18.63290527 1.62643188 18.63290527 1.62643188 17.09472656 1.56811523 C15.19158691 1.50346069 15.19158691 1.50346069 13.25 1.4375 C9.2075 1.293125 5.165 1.14875 1 1 C1 16.51 1 32.02 1 48 C5.95 47.505 5.95 47.505 11 47 C11 47.66 11 48.32 11 49 C7.37 49 3.74 49 0 49 C0 32.83 0 16.66 0 0 Z " fill="#152C0B" transform="translate(54,204)"/>
<path d="M0 0 C1.73540039 0.01450195 1.73540039 0.01450195 3.50585938 0.02929688 C4.70404297 0.05443359 5.90222656 0.07957031 7.13671875 0.10546875 C8.96299805 0.12577148 8.96299805 0.12577148 10.82617188 0.14648438 C13.8259722 0.18177614 16.8248685 0.23108394 19.82421875 0.29296875 C19.82421875 3.26296875 19.82421875 6.23296875 19.82421875 9.29296875 C13.55421875 9.29296875 7.28421875 9.29296875 0.82421875 9.29296875 C0.82421875 8.96296875 0.82421875 8.63296875 0.82421875 8.29296875 C6.76421875 8.29296875 12.70421875 8.29296875 18.82421875 8.29296875 C18.82421875 5.98296875 18.82421875 3.67296875 18.82421875 1.29296875 C10.90421875 1.29296875 2.98421875 1.29296875 -5.17578125 1.29296875 C-5.17578125 1.95296875 -5.17578125 2.61296875 -5.17578125 3.29296875 C-6.32046875 3.94265625 -6.32046875 3.94265625 -7.48828125 4.60546875 C-10.59812773 6.55816305 -11.69890067 7.9505548 -13.17578125 11.29296875 C-13.42714158 14.50213046 -13.42714158 14.50213046 -13.17578125 17.29296875 C-12.51578125 17.62296875 -11.85578125 17.95296875 -11.17578125 18.29296875 C-10.58222511 20.94157302 -10.43368856 23.58494197 -10.17578125 26.29296875 C-11.16578125 26.95296875 -12.15578125 27.61296875 -13.17578125 28.29296875 C-12.94890625 27.57109375 -12.72203125 26.84921875 -12.48828125 26.10546875 C-11.87271617 23.24813504 -11.87271617 23.24813504 -13.61328125 21.04296875 C-15.8412555 17.12173408 -15.87639879 13.70685923 -15.17578125 9.29296875 C-11.76237419 2.46615463 -7.55373749 -0.11163159 0 0 Z " fill="#192D11" transform="translate(220.17578125,203.70703125)"/>
<path d="M0 0 C0.53625 0.7425 1.0725 1.485 1.625 2.25 C5.52692703 6.76802077 8.93773735 9.07891223 14.875 9.75 C16.916875 9.87375 16.916875 9.87375 19 10 C19 6.7 19 3.4 19 0 C19.66 0.33 20.32 0.66 21 1 C20.12503833 15.72349298 20.12503833 15.72349298 15.46875 20.60546875 C14.03781347 21.81029031 12.52446196 22.91593816 11 24 C10.34 23.67 9.68 23.34 9 23 C9.33 21.68 9.66 20.36 10 19 C11.65 18.67 13.3 18.34 15 18 C15 16.02 15 14.04 15 12 C13.9275 11.87625 12.855 11.7525 11.75 11.625 C6.99539114 10.83256519 5.05460212 10.11319113 1.75 6.625 C0 4 0 4 0 0 Z " fill="#79BC5E" transform="translate(282,243)"/>
<path d="M0 0 C7.26 0 14.52 0 22 0 C23 10 23 10 22.875 14.8125 C22.79194337 18.74384702 23.90466816 20.66651753 26 24 C25.02381834 27.22139948 23.05882022 29.25490637 21 32 C21 21.77 21 11.54 21 1 C14.4 1 7.8 1 1 1 C1 3.97 1 6.94 1 10 C3.97 10 6.94 10 10 10 C10 10.33 10 10.66 10 11 C6.7 11 3.4 11 0 11 C0 7.37 0 3.74 0 0 Z " fill="#558340" transform="translate(183,203)"/>
<path d="M0 0 C2.40994015 3.61491023 2.75176686 6.59570656 3.4375 10.8203125 C3.623125 11.53960937 3.80875 12.25890625 4 13 C4.66 13.33 5.32 13.66 6 14 C6 15.32 6 16.64 6 18 C10.29 18 14.58 18 19 18 C19 18.66 19 19.32 19 20 C16.36 20 13.72 20 11 20 C11 20.99 11 21.98 11 23 C10.34 23 9.68 23 9 23 C9 24.98 9 26.96 9 29 C2.44690875 22.97479666 1.45477571 12.37785725 0 4 C0 2.68 0 1.36 0 0 Z " fill="#7DCF5F" transform="translate(47,235)"/>
<path d="M0 0 C1.32874146 0.00374634 1.32874146 0.00374634 2.68432617 0.00756836 C4.36619019 0.02122437 4.36619019 0.02122437 6.08203125 0.03515625 C9.65015625 0.05578125 13.21828125 0.07640625 16.89453125 0.09765625 C17.38953125 15.44265625 17.38953125 15.44265625 17.89453125 31.09765625 C15.89453125 29.09765625 15.89453125 29.09765625 15.66748047 26.30029297 C15.6779541 25.13771973 15.68842773 23.97514648 15.69921875 22.77734375 C15.70566406 21.52050781 15.71210938 20.26367188 15.71875 18.96875 C15.73550781 17.65003906 15.75226563 16.33132812 15.76953125 14.97265625 C15.77956142 13.63281904 15.78868721 12.29297473 15.796875 10.953125 C15.82050977 7.66789249 15.85638175 4.38275227 15.89453125 1.09765625 C9.29453125 1.09765625 2.69453125 1.09765625 -4.10546875 1.09765625 C-4.43546875 2.08765625 -4.76546875 3.07765625 -5.10546875 4.09765625 C-5.93046875 4.38640625 -6.75546875 4.67515625 -7.60546875 4.97265625 C-8.43046875 5.34390625 -9.25546875 5.71515625 -10.10546875 6.09765625 C-10.99933039 8.64540931 -10.99933039 8.64540931 -11.10546875 11.09765625 C-11.76546875 10.76765625 -12.42546875 10.43765625 -13.10546875 10.09765625 C-12.6270081 5.79151036 -11.44620494 3.84885076 -8.10546875 1.09765625 C-5.10530963 0.09760321 -3.13123119 -0.0180996 0 0 Z " fill="#88D067" transform="translate(264.10546875,213.90234375)"/>
<path d="M0 0 C3.625 0.375 3.625 0.375 7 1 C7 1.66 7 2.32 7 3 C7.639375 3.2475 8.27875 3.495 8.9375 3.75 C11 5 11 5 11.75 7.125 C11.87375 8.053125 11.87375 8.053125 12 9 C10.02 9 8.04 9 6 9 C6 7.35 6 5.7 6 4 C5.44699219 4.50917969 4.89398438 5.01835937 4.32421875 5.54296875 C2 7 2 7 -0.54296875 6.92578125 C-1.41566406 6.72339844 -2.28835937 6.52101562 -3.1875 6.3125 C-4.06792969 6.12300781 -4.94835937 5.93351563 -5.85546875 5.73828125 C-8 5 -8 5 -9 3 C-7.88625 2.87625 -6.7725 2.7525 -5.625 2.625 C-1.96896323 2.3534187 -1.96896323 2.3534187 0 0 Z " fill="#232125" transform="translate(163,205)"/>
<path d="M0 0 C0.78375 0.78375 1.5675 1.5675 2.375 2.375 C6.3966367 5.78759075 10.89727996 6.32434339 16 7 C16 7.33 16 7.66 16 8 C8.25 8.125 8.25 8.125 6 7 C6 7.66 6 8.32 6 9 C3.69 9.33 1.38 9.66 -1 10 C0.65 11.65 2.3 13.3 4 15 C-0.1088041 14.47470631 -2.25519841 13.33192009 -5.3125 10.5625 C-6.00988281 9.94503906 -6.70726562 9.32757813 -7.42578125 8.69140625 C-9 7 -9 7 -9 5 C-8.1028125 5.4640625 -8.1028125 5.4640625 -7.1875 5.9375 C-3.27894447 7.83594126 -1.17320256 8.01510333 3 7 C2.505 6.21625 2.01 5.4325 1.5 4.625 C0 2 0 2 0 0 Z " fill="#1C2E15" transform="translate(145,237)"/>
<path d="M0 0 C1.918125 -0.0825 3.83625 -0.165 5.8125 -0.25 C7.43091797 -0.31960937 7.43091797 -0.31960937 9.08203125 -0.390625 C12 0 12 0 13.859375 1.796875 C15.54104969 5.04504118 15.44966521 7.40267833 15 11 C13.6875 13.4375 13.6875 13.4375 11 15 C7.26598404 15.32773378 3.7630972 15.1791951 0 15 C0 10.05 0 5.1 0 0 Z M1 1 C1 5.29 1 9.58 1 14 C3.97 14 6.94 14 10 14 C10.33 13.01 10.66 12.02 11 11 C11.66 11 12.32 11 13 11 C13.33 10.01 13.66 9.02 14 8 C13.34 8 12.68 8 12 8 C11.896875 7.21625 11.79375 6.4325 11.6875 5.625 C11.22404978 2.66954819 11.22404978 2.66954819 8 1 C5.66800612 0.92094936 3.33167378 0.91201231 1 1 Z " fill="#86CA66" transform="translate(66,214)"/>
<path d="M0 0 C0 0.66 0 1.32 0 2 C-0.85078125 1.84273437 -1.7015625 1.68546875 -2.578125 1.5234375 C-14.13780519 -0.24482408 -22.78445629 0.70612171 -32.2734375 7.66796875 C-32.84320313 8.10753906 -33.41296875 8.54710937 -34 9 C-33.74140955 4.51776551 -33.74140955 4.51776551 -32 2 C-22.2089598 -3.09368958 -10.31858247 -3.75221181 0 0 Z " fill="#7EBF62" transform="translate(170,203)"/>
<path d="M0 0 C0.3403125 0.86625 0.3403125 0.86625 0.6875 1.75 C2.33038023 4.5663661 4.39533227 6.08077114 7 8 C6.67 8.66 6.34 9.32 6 10 C4.66536458 8.76302083 3.33072917 7.52604167 1.99609375 6.2890625 C-4.54034218 2.06788079 -12.43817844 2.57964323 -19.9375 2.375 C-21.09830078 2.33632812 -22.25910156 2.29765625 -23.45507812 2.2578125 C-26.30323169 2.16404613 -29.15138738 2.07834083 -32 2 C-32 5.3 -32 8.6 -32 12 C-32.66 11.67 -33.32 11.34 -34 11 C-34 7.7 -34 4.4 -34 1 C-29.47934189 0.8571864 -24.9586712 0.71478006 -20.43798828 0.57275391 C-18.89957328 0.52436382 -17.3611618 0.47586174 -15.82275391 0.42724609 C-13.6136159 0.35745385 -11.40446562 0.28806219 -9.1953125 0.21875 C-8.50567413 0.19687622 -7.81603577 0.17500244 -7.10549927 0.15246582 C-2.22774341 0 -2.22774341 0 0 0 Z " fill="#85CC67" transform="translate(124,201)"/>
<path d="M0 0 C2.46301423 2.46301423 2.76766521 4.27360036 3.625 7.625 C3.88539063 8.62789062 4.14578125 9.63078125 4.4140625 10.6640625 C4.60742188 11.43492187 4.80078125 12.20578125 5 13 C2.25 13.375 2.25 13.375 -1 13 C-3.375 10 -3.375 10 -5 7 C-3.70700306 4.11562221 -2.34058637 2.12780579 0 0 Z " fill="#80C264" transform="translate(130,230)"/>
<path d="M0 0 C8.25 0 16.5 0 25 0 C25.33 2.64 25.66 5.28 26 8 C26.33 8.66 26.66 9.32 27 10 C25.35646785 12.01131557 24.54586488 12.93485931 21.9152832 13.2487793 C21.13499756 13.19117432 20.35471191 13.13356934 19.55078125 13.07421875 C18.70322266 13.01943359 17.85566406 12.96464844 16.98242188 12.90820312 C16.10134766 12.83537109 15.22027344 12.76253906 14.3125 12.6875 C13.41982422 12.62626953 12.52714844 12.56503906 11.60742188 12.50195312 C9.40353414 12.34874168 7.20175794 12.18091866 5 12 C5 11.67 5 11.34 5 11 C11.27 11 17.54 11 24 11 C24 7.7 24 4.4 24 1 C16.08 1 8.16 1 0 1 C0 0.67 0 0.34 0 0 Z " fill="#74B356" transform="translate(216,203)"/>
<path d="M0 0 C0.33 0 0.66 0 1 0 C1.06058594 0.96421875 1.12117187 1.9284375 1.18359375 2.921875 C1.26738281 4.18515625 1.35117188 5.4484375 1.4375 6.75 C1.55931641 8.62945312 1.55931641 8.62945312 1.68359375 10.546875 C1.89071482 13.79833325 1.89071482 13.79833325 2.53125 16.09375 C3.16568091 18.67376904 3.09406715 21.09835922 3.0625 23.75 C3.05347656 24.73484375 3.04445312 25.7196875 3.03515625 26.734375 C3.02355469 27.48203125 3.01195312 28.2296875 3 29 C2.67 29 2.34 29 2 29 C1.90203125 28.154375 1.8040625 27.30875 1.703125 26.4375 C0.44574961 16.89879013 -1.62329229 10.28766595 -8 3 C-5.69 3.66 -3.38 4.32 -1 5 C-0.67 3.35 -0.34 1.7 0 0 Z " fill="#87CE69" transform="translate(182,204)"/>
<path d="M0 0 C1.12067871 0.01047363 2.24135742 0.02094727 3.39599609 0.03173828 C5.21357422 0.04140625 5.21357422 0.04140625 7.06787109 0.05126953 C8.33888672 0.06802734 9.60990234 0.08478516 10.91943359 0.10205078 C12.19818359 0.11107422 13.47693359 0.12009766 14.79443359 0.12939453 C17.96128526 0.15302775 21.12776783 0.18597449 24.29443359 0.22705078 C24.29443359 0.55705078 24.29443359 0.88705078 24.29443359 1.22705078 C23.60929687 1.23115967 22.92416016 1.23526855 22.21826172 1.23950195 C19.0761437 1.27265225 15.93590987 1.34331963 12.79443359 1.41455078 C11.71677734 1.42035156 10.63912109 1.42615234 9.52880859 1.43212891 C0.68363192 1.67483192 -4.59120795 3.88421573 -10.70556641 10.22705078 C-10.70556641 7.58705078 -10.70556641 4.94705078 -10.70556641 2.22705078 C-9.75681641 2.26830078 -8.80806641 2.30955078 -7.83056641 2.35205078 C-3.98848775 2.19836763 -3.69094723 0.30974381 0 0 Z " fill="#86D267" transform="translate(215.70556640625,201.77294921875)"/>
<path d="M0 0 C2.36599211 3.54898817 2.12434029 4.26941767 1.375 8.3125 C-0.05293797 15.08628072 -2.32165514 19.07911674 -8.125 22.9375 C-10.1953125 24.21484375 -10.1953125 24.21484375 -12 25 C-12.66 24.67 -13.32 24.34 -14 24 C-13 22 -13 22 -10.1875 20.6875 C-6.6130637 18.79515137 -5.23890615 17.34233434 -3 14 C-1.88611581 10.44392101 -1.88611581 10.44392101 -1.25 6.6875 C-1.00765625 5.43324219 -0.7653125 4.17898438 -0.515625 2.88671875 C-0.34546875 1.93410156 -0.1753125 0.98148438 0 0 Z " fill="#298964" transform="translate(306,252)"/>
<path d="M0 0 C2.10353495 -0.0810206 4.20795952 -0.13919907 6.3125 -0.1875 C7.48425781 -0.22230469 8.65601562 -0.25710937 9.86328125 -0.29296875 C13 0 13 0 14.890625 1.296875 C16.78875154 4.21090026 16.41255316 6.64063859 16 10 C14.36328125 12.20703125 14.36328125 12.20703125 12 14 C8.984375 14.390625 8.984375 14.390625 5.75 14.25 C4.67234375 14.21390625 3.5946875 14.1778125 2.484375 14.140625 C1.25460938 14.07101563 1.25460938 14.07101563 0 14 C0 13.67 0 13.34 0 13 C0.75925781 12.93941406 1.51851563 12.87882813 2.30078125 12.81640625 C3.79158203 12.69072266 3.79158203 12.69072266 5.3125 12.5625 C6.29863281 12.48128906 7.28476563 12.40007812 8.30078125 12.31640625 C11.09375599 12.08187441 11.09375599 12.08187441 14 11 C14 9.02 14 7.04 14 5 C13.34 5 12.68 5 12 5 C11.67 4.01 11.34 3.02 11 2 C7.37 1.67 3.74 1.34 0 1 C0 0.67 0 0.34 0 0 Z " fill="#87C667" transform="translate(105,214)"/>
<path d="M0 0 C5.61 0 11.22 0 17 0 C17 2.97 17 5.94 17 9 C15.89140625 9.06058594 14.7828125 9.12117187 13.640625 9.18359375 C12.1770718 9.26802951 10.71353075 9.35267599 9.25 9.4375 C8.15558594 9.49647461 8.15558594 9.49647461 7.0390625 9.55664062 C3.5727027 9.76147098 0.34666974 10.0852002 -3 11 C-2.67 10.01 -2.34 9.02 -2 8 C3.61 8 9.22 8 15 8 C14.67 6.02 14.34 4.04 14 2 C7.07 1.505 7.07 1.505 0 1 C0 0.67 0 0.34 0 0 Z " fill="#162B0E" transform="translate(220,223)"/>
<path d="M0 0 C0.66 0 1.32 0 2 0 C2 3.96 2 7.92 2 12 C0.68 12.33 -0.64 12.66 -2 13 C-3 12 -3 12 -3.25 8.75 C-2.98977142 4.84657127 -2.396006 3.04108454 0 0 Z " fill="#80CB62" transform="translate(191,245)"/>
<path d="M0 0 C2 3 2 3 3.25 5.5 C5.41161686 8.58802409 7.57117757 9.55227497 11 11 C10.67 11.66 10.34 12.32 10 13 C7.36 11.68 4.72 10.36 2 9 C2 12.3 2 15.6 2 19 C1.34 19 0.68 19 0 19 C0 12.73 0 6.46 0 0 Z " fill="#79B55D" transform="translate(204,241)"/>
<path d="M0 0 C0 0.99 0 1.98 0 3 C-3.98022555 6.26485041 -7.28965879 6.32832732 -12.3125 6.1875 C-13.56675781 6.16042969 -14.82101563 6.13335937 -16.11328125 6.10546875 C-17.54220703 6.05326172 -17.54220703 6.05326172 -19 6 C-19 9.3 -19 12.6 -19 16 C-19.33 16 -19.66 16 -20 16 C-20 12.04 -20 8.08 -20 4 C-19.05898437 3.96261719 -18.11796875 3.92523438 -17.1484375 3.88671875 C-15.90320313 3.82097656 -14.65796875 3.75523437 -13.375 3.6875 C-11.53035156 3.60048828 -11.53035156 3.60048828 -9.6484375 3.51171875 C-5.8576575 2.98003547 -3.29970329 1.89352204 0 0 Z " fill="#83C567" transform="translate(86,235)"/>
<path d="M0 0 C12.65740558 -0.77074865 12.65740558 -0.77074865 17.375 1.9375 C19.56291892 6.06088565 19.44811187 9.42925897 19 14 C17.35 14.66 15.7 15.32 14 16 C14.33 15.484375 14.66 14.96875 15 14.4375 C16.37020241 11.09763163 16.3898913 8.57400356 16 5 C12.88745183 1.81298895 10.08742808 1.54822979 5.75 1.3125 C4.67234375 1.24675781 3.5946875 1.18101562 2.484375 1.11328125 C1.66453125 1.07589844 0.8446875 1.03851563 0 1 C0 0.67 0 0.34 0 0 Z " fill="#192F10" transform="translate(104,212)"/>
<path d="M0 0 C2.40994015 3.61491023 2.75176686 6.59570656 3.4375 10.8203125 C3.623125 11.53960937 3.80875 12.25890625 4 13 C4.66 13.33 5.32 13.66 6 14 C6 15.32 6 16.64 6 18 C9.96 18 13.92 18 18 18 C18 18.33 18 18.66 18 19 C13.38 19.33 8.76 19.66 4 20 C3.32749476 17.41806023 2.66182099 14.83467929 2 12.25 C1.71382812 11.15558594 1.71382812 11.15558594 1.421875 10.0390625 C0.53484036 6.55428354 0 3.61876278 0 0 Z " fill="#8DCC72" transform="translate(47,235)"/>
<path d="M0 0 C0.66 0.33 1.32 0.66 2 1 C-6.58910891 8.87128713 -6.58910891 8.87128713 -13.3125 9.125 C-14.199375 9.08375 -15.08625 9.0425 -16 9 C-16 8.67 -16 8.34 -16 8 C-15.030625 7.71125 -14.06125 7.4225 -13.0625 7.125 C-9.89335797 6.35785318 -9.89335797 6.35785318 -9 4 C-8.01 4 -7.02 4 -6 4 C-6 3.34 -6 2.68 -6 2 C-3 1 -3 1 -1 1 C-0.67 0.67 -0.34 0.34 0 0 Z " fill="#1C2B16" transform="translate(176,244)"/>
<path d="M0 0 C2.97 0 5.94 0 9 0 C9.13476597 3.10560698 9.23398121 6.20539935 9.3125 9.3125 C9.3753418 10.63411133 9.3753418 10.63411133 9.43945312 11.98242188 C9.48579382 14.41994228 9.48611344 16.60970257 9 19 C6.48046875 21.10546875 6.48046875 21.10546875 4 22 C4.309375 21.46375 4.61875 20.9275 4.9375 20.375 C7.55138025 14.53220886 7.11150877 8.2692707 7 2 C4.69 1.67 2.38 1.34 0 1 C0 0.67 0 0.34 0 0 Z " fill="#8BCB6C" transform="translate(184,214)"/>
<path d="M0 0 C0.66 0.33 1.32 0.66 2 1 C2 3.31 2 5.62 2 8 C7.94 7.67 13.88 7.34 20 7 C20 7.66 20 8.32 20 9 C16.89601022 9.08710289 13.79233452 9.14042309 10.6875 9.1875 C9.80642578 9.21263672 8.92535156 9.23777344 8.01757812 9.26367188 C6.74624023 9.27817383 6.74624023 9.27817383 5.44921875 9.29296875 C4.66893311 9.3086792 3.88864746 9.32438965 3.0847168 9.34057617 C0.45651778 8.91121236 -0.43986182 8.12849453 -2 6 C-1.57894737 1.57894737 -1.57894737 1.57894737 0 0 Z " fill="#87C66B" transform="translate(218,214)"/>
<path d="M0 0 C0.33 0 0.66 0 1 0 C1.02688151 1.64574566 1.04634123 3.29161413 1.0625 4.9375 C1.07410156 5.85402344 1.08570313 6.77054688 1.09765625 7.71484375 C1 10 1 10 0 11 C-5.46747074 12.13953601 -9.78021347 12.27529157 -15 10 C-15 9.67 -15 9.34 -15 9 C-10.05 9 -5.1 9 0 9 C0 6.03 0 3.06 0 0 Z " fill="#89CF69" transform="translate(272,244)"/>
<path d="M0 0 C1.65 0 3.3 0 5 0 C5 3.3 5 6.6 5 10 C2.36 10 -0.28 10 -3 10 C-2.34 9.34 -1.68 8.68 -1 8 C-0.01 8 0.98 8 2 8 C2.33 6.02 2.66 4.04 3 2 C2.01 1.67 1.02 1.34 0 1 C0 0.67 0 0.34 0 0 Z " fill="#17300D" transform="translate(130,243)"/>
<path d="M0 0 C3.38097596 -0.29035099 6.62775492 -0.43342335 10 0 C12.625 2.3125 12.625 2.3125 14 5 C14 5.99 14 6.98 14 8 C14.66 8 15.32 8 16 8 C16.99 9.485 16.99 9.485 18 11 C17.67 11.99 17.34 12.98 17 14 C14.60722283 11.17994119 12.81242803 8.60237371 11.3125 5.25 C9.41024212 1.86966186 9.41024212 1.86966186 6.74609375 1.33203125 C4.47743973 1.08705922 2.28052207 0.96588963 0 1 C0 0.67 0 0.34 0 0 Z " fill="#1C3412" transform="translate(104,237)"/>
<path d="M0 0 C0.66 0 1.32 0 2 0 C2 2.31 2 4.62 2 7 C0.06280622 7.05406122 -1.87481921 7.09282025 -3.8125 7.125 C-4.89144531 7.14820313 -5.97039062 7.17140625 -7.08203125 7.1953125 C-10 7 -10 7 -13 5 C-7.06 4.505 -7.06 4.505 -1 4 C-0.67 2.68 -0.34 1.36 0 0 Z " fill="#192E0F" transform="translate(269,246)"/>
<path d="M0 0 C6.44498407 0.33336124 9.55133059 1.22581819 14 6 C14.875 8.8125 14.875 8.8125 15 11 C14.566875 10.525625 14.13375 10.05125 13.6875 9.5625 C11.97690387 7.76313043 11.97690387 7.76313043 9 7 C8.3125 4.9375 8.3125 4.9375 8 3 C7.4225 2.87625 6.845 2.7525 6.25 2.625 C3.97664233 1.99351176 2.0746471 1.11141809 0 0 Z " fill="#1E3514" transform="translate(76,204)"/>
<path d="M0 0 C0 0.66 0 1.32 0 2 C-1.01320312 2.48919922 -1.01320312 2.48919922 -2.046875 2.98828125 C-3.38492188 3.64376953 -3.38492188 3.64376953 -4.75 4.3125 C-5.63171875 4.74175781 -6.5134375 5.17101562 -7.421875 5.61328125 C-9.81600215 6.90103146 -11.87776958 8.30915754 -14 10 C-13.47378736 5.35178834 -13.47378736 5.35178834 -12 3 C-8.26688155 1.1525523 -4.1835556 0 0 0 Z " fill="#83C966" transform="translate(150,202)"/>
<path d="M0 0 C0.57878906 0.36480469 1.15757812 0.72960937 1.75390625 1.10546875 C1.10164063 1.3478125 0.449375 1.59015625 -0.22265625 1.83984375 C-5.35822569 3.80923616 -9.8155227 5.84083745 -14.24609375 9.10546875 C-14.57609375 8.11546875 -14.90609375 7.12546875 -15.24609375 6.10546875 C-13.59788131 5.07533598 -11.92497816 4.08481799 -10.24609375 3.10546875 C-9.59511719 2.72261719 -8.94414062 2.33976563 -8.2734375 1.9453125 C-7.58378906 1.56503906 -6.89414063 1.18476563 -6.18359375 0.79296875 C-5.20712891 0.24189453 -5.20712891 0.24189453 -4.2109375 -0.3203125 C-2.24609375 -0.89453125 -2.24609375 -0.89453125 0 0 Z " fill="#85C864" transform="translate(257.24609375,202.89453125)"/>
<path d="M0 0 C1.20269531 -0.01417969 2.40539062 -0.02835938 3.64453125 -0.04296875 C7.16833425 0.18625328 9.90879528 0.91719021 13.1875 2.1875 C9.5617928 3.44255249 6.9183454 2.83322324 3.1875 2.1875 C-1.24849758 1.95219168 -5.485389 2.10572225 -9.8125 3.1875 C-9.8125 2.5275 -9.8125 1.8675 -9.8125 1.1875 C-6.37168729 0.04056243 -3.62503288 0.01930262 0 0 Z " fill="#1A3412" transform="translate(156.8125,202.8125)"/>
<path d="M0 0 C0 0.7425 0 1.485 0 2.25 C1.20665714 5.56830714 1.98992519 5.80059811 5.0625 7.3125 C6.36728944 7.89266121 7.67773548 8.46085342 9 9 C9 9.66 9 10.32 9 11 C4.8911959 10.47470631 2.74480159 9.33192009 -0.3125 6.5625 C-1.00988281 5.94503906 -1.70726562 5.32757813 -2.42578125 4.69140625 C-4 3 -4 3 -4 1 C-2 0 -2 0 0 0 Z " fill="#192D14" transform="translate(246,240)"/>
<path d="M0 0 C0.99 0 1.98 0 3 0 C3 0.66 3 1.32 3 2 C-4.02436254 6.40744316 -9.82632933 6.4485551 -18 6 C-18 5.67 -18 5.34 -18 5 C-16.91332031 4.92652344 -16.91332031 4.92652344 -15.8046875 4.8515625 C-8.21459233 4.29788834 -8.21459233 4.29788834 -1 2 C-0.67 1.34 -0.34 0.68 0 0 Z " fill="#19350F" transform="translate(85,233)"/>
<path d="M0 0 C0.33 0 0.66 0 1 0 C0.03644647 12.66970387 0.03644647 12.66970387 -1 18 C-1.33 18 -1.66 18 -2 18 C-3.30267176 12.49983036 -2.71033431 7.52967941 -2 2 C-1.34 2 -0.68 2 0 2 C0 1.34 0 0.68 0 0 Z " fill="#8EC776" transform="translate(309,202)"/>
<path d="M0 0 C1.051875 1.1446875 1.051875 1.1446875 2.125 2.3125 C4.96352604 4.96590478 7.46949051 6.44000743 11 8 C11 8.66 11 9.32 11 10 C7.76761586 9.92303847 5.66772205 9.62561345 3.265625 7.375 C1.78148327 5.62229929 0.36155666 3.84920638 -1 2 C-0.67 1.34 -0.34 0.68 0 0 Z " fill="#2A9969" transform="translate(50,266)"/>
<path d="M0 0 C0.66 0 1.32 0 2 0 C2 4.95 2 9.9 2 15 C0.35 15.33 -1.3 15.66 -3 16 C-3 16.66 -3 17.32 -3 18 C-3.66 18 -4.32 18 -5 18 C-5.33 16.68 -5.66 15.36 -6 14 C-4.02 13.67 -2.04 13.34 0 13 C0 8.71 0 4.42 0 0 Z " fill="#344D28" transform="translate(192,244)"/>
<path d="M0 0 C0.598125 0.28875 1.19625 0.5775 1.8125 0.875 C2.1425 1.865 2.4725 2.855 2.8125 3.875 C0.5025 4.535 -1.8075 5.195 -4.1875 5.875 C-4.8475 4.885 -5.5075 3.895 -6.1875 2.875 C-2.78900376 -0.15937164 -2.78900376 -0.15937164 0 0 Z " fill="#252125" transform="translate(145.1875,240.125)"/>
<path d="M0 0 C0.99 0.33 1.98 0.66 3 1 C1.98187755 3.0362449 0.96530388 5.06360955 -0.125 7.0625 C-1.20579336 9.10136548 -1.20579336 9.10136548 -1 12 C-2.32 10.35 -3.64 8.7 -5 7 C-4.34 7 -3.68 7 -3 7 C-3 6.34 -3 5.68 -3 5 C-2.34 5 -1.68 5 -1 5 C-1.33 4.01 -1.66 3.02 -2 2 C-1.34 1.34 -0.68 0.68 0 0 Z " fill="#1C2A14" transform="translate(127,228)"/>
<path d="M0 0 C0.99 0.495 0.99 0.495 2 1 C2.92350727 3.77052181 3.16329585 5.56688758 3.1875 8.4375 C3.20167969 9.19933594 3.21585938 9.96117187 3.23046875 10.74609375 C3 13 3 13 1 17 C0.67 11.39 0.34 5.78 0 0 Z " fill="#2C431E" transform="translate(181,219)"/>
<path d="M0 0 C0.33 0.99 0.66 1.98 1 3 C0.030625 3.391875 -0.93875 3.78375 -1.9375 4.1875 C-5.22176391 5.67594887 -5.22176391 5.67594887 -5.875 8.6875 C-5.91625 9.450625 -5.9575 10.21375 -6 11 C-6.66 10.67 -7.32 10.34 -8 10 C-7.52153935 5.69385411 -6.34073619 3.75119451 -3 1 C-2.01 0.67 -1.02 0.34 0 0 Z " fill="#81C962" transform="translate(259,214)"/>
<path d="M0 0 C0.33 0 0.66 0 1 0 C1.04898438 0.77085937 1.09796875 1.54171875 1.1484375 2.3359375 C1.22320312 3.33882812 1.29796875 4.34171875 1.375 5.375 C1.44460937 6.37273437 1.51421875 7.37046875 1.5859375 8.3984375 C1.76363964 11.15508879 1.76363964 11.15508879 4 13 C3.67 13.99 3.34 14.98 3 16 C-1.02154809 10.92935241 -1.20263037 7.28154144 -1 1 C-0.67 0.67 -0.34 0.34 0 0 Z " fill="#7CBD62" transform="translate(144,223)"/>
<path d="M0 0 C2.97 0 5.94 0 9 0 C8.2575 0.5775 7.515 1.155 6.75 1.75 C4.33912357 3.72253526 2.15957299 5.76044282 0 8 C0 5.36 0 2.72 0 0 Z " fill="#84C464" transform="translate(205,204)"/>
<path d="M0 0 C0.99 0.33 1.98 0.66 3 1 C2.2575 1.4125 1.515 1.825 0.75 2.25 C-2.54875878 4.34921013 -5.23252144 6.46504288 -7 10 C-7.66 10 -8.32 10 -9 10 C-7.64717831 5.57258356 -5.76701112 3.63690779 -2 1 C-1.34 0.67 -0.68 0.34 0 0 Z " fill="#88C768" transform="translate(52,190)"/>
<path d="M0 0 C0.66 0 1.32 0 2 0 C2.36552803 1.41377782 2.71695495 2.83120576 3.0625 4.25 C3.25972656 5.03890625 3.45695312 5.8278125 3.66015625 6.640625 C4.01497267 9.10394822 3.76877544 10.65604132 3 13 C-0.42857143 4.57142857 -0.42857143 4.57142857 0 0 Z " fill="#369871" transform="translate(46,255)"/>
<path d="M0 0 C3.96 0 7.92 0 12 0 C12 0.66 12 1.32 12 2 C6.06 2.495 6.06 2.495 0 3 C0 2.01 0 1.02 0 0 Z " fill="#8ACE6B" transform="translate(92,253)"/>
<path d="M0 0 C0.33 0 0.66 0 1 0 C1.09765625 6.15234375 1.09765625 6.15234375 1 8 C0 9 0 9 -2.06640625 9.09765625 C-2.89011719 9.08605469 -3.71382812 9.07445312 -4.5625 9.0625 C-5.38878906 9.05347656 -6.21507812 9.04445312 -7.06640625 9.03515625 C-7.70449219 9.02355469 -8.34257813 9.01195312 -9 9 C-9 8.67 -9 8.34 -9 8 C-6.69 8 -4.38 8 -2 8 C-1.855625 7.236875 -1.71125 6.47375 -1.5625 5.6875 C-1 3 -1 3 0 0 Z " fill="#1D2715" transform="translate(64,243)"/>
<path d="M0 0 C3.84375 1.78125 3.84375 1.78125 5.25 3.75 C6.19251213 6.57753638 6.1345485 9.03993304 6 12 C3.0487355 10.52436775 2.93076085 8.49920648 1.875 5.4375 C1.52179688 4.42558594 1.16859375 3.41367188 0.8046875 2.37109375 C0.53914063 1.58863281 0.27359375 0.80617187 0 0 Z " fill="#389E70" transform="translate(310,194)"/>
<path d="M0 0 C1.46022163 0.95545366 2.91811468 1.91446678 4.375 2.875 C5.18710938 3.40867188 5.99921875 3.94234375 6.8359375 4.4921875 C9 6 9 6 11 8 C7.30098995 8 5.25963588 6.66449492 2 5 C1.34 5 0.68 5 0 5 C0 3.35 0 1.7 0 0 Z " fill="#7DC05E" transform="translate(137,245)"/>
<path d="M0 0 C-0.37047118 2.74148672 -0.68587944 4.58593199 -2.375 6.8125 C-4 8 -4 8 -7 8 C-6.44414399 4.1090079 -4.34122117 0 0 0 Z " fill="#263C23" transform="translate(139,211)"/>
<path d="M0 0 C1.13732426 3.40401948 0.83989957 5.77456664 0.0625 9.25 C-0.13214844 10.14203125 -0.32679688 11.0340625 -0.52734375 11.953125 C-0.68332031 12.62859375 -0.83929688 13.3040625 -1 14 C-3.27005139 10.59492291 -3.18320175 9.78521579 -2.75 5.875 C-2.66234375 4.98554688 -2.5746875 4.09609375 -2.484375 3.1796875 C-2.32453125 2.46039063 -2.1646875 1.74109375 -2 1 C-1.34 0.67 -0.68 0.34 0 0 Z " fill="#236F55" transform="translate(316,204)"/>
<path d="M0 0 C0.99 0.33 1.98 0.66 3 1 C3.75 2.9375 3.75 2.9375 4 5 C3.67 5.66 3.34 6.32 3 7 C2.01 6.67 1.02 6.34 0 6 C-0.38218767 4.34385343 -0.71395102 2.67542976 -1 1 C-0.67 0.67 -0.34 0.34 0 0 Z " fill="#7DCF5A" transform="translate(130,235)"/>
<path d="M0 0 C0.33 0.66 0.66 1.32 1 2 C0.54625 2.433125 0.0925 2.86625 -0.375 3.3125 C-2.20024334 5.10798342 -2.20024334 5.10798342 -4 8 C-4 7.34 -4 6.68 -4 6 C-4.99 5.67 -5.98 5.34 -7 5 C-2.25 1.125 -2.25 1.125 0 0 Z " fill="#1E3219" transform="translate(145,205)"/>
<path d="M0 0 C0.33 0 0.66 0 1 0 C1.33 2.31 1.66 4.62 2 7 C-1.75 8.125 -1.75 8.125 -4 7 C-4 6.34 -4 5.68 -4 5 C-3.34 5 -2.68 5 -2 5 C-1.34 3.35 -0.68 1.7 0 0 Z " fill="#1C2918" transform="translate(187,251)"/>
<path d="M0 0 C1.32 1.32 2.64 2.64 4 4 C2.25 7.875 2.25 7.875 0 9 C0 6.03 0 3.06 0 0 Z " fill="#85C367" transform="translate(205,223)"/>
<path d="M0 0 C0.66 0 1.32 0 2 0 C1.5206753 4.31392226 0.2542015 6.16569547 -3 9 C-2.5020163 5.26512223 -2.12508244 3.18762365 0 0 Z " fill="#1B2E14" transform="translate(242,214)"/>
<path d="M0 0 C0.33 0 0.66 0 1 0 C1.33 1.98 1.66 3.96 2 6 C2.99 6 3.98 6 5 6 C5 6.66 5 7.32 5 8 C3.02 8.99 3.02 8.99 1 10 C1 9.34 1 8.68 1 8 C0.34 8 -0.32 8 -1 8 C-0.67 5.36 -0.34 2.72 0 0 Z " fill="#78D665" transform="translate(42,200)"/>
<path d="M0 0 C0.99 0.33 1.98 0.66 3 1 C1.625 3.5 1.625 3.5 0 6 C-0.66 6 -1.32 6 -2 6 C-2 4.35 -2 2.7 -2 1 C-1.34 0.67 -0.68 0.34 0 0 Z " fill="#192B1E" transform="translate(89,227)"/>
<path d="M0 0 C0.33 0.99 0.66 1.98 1 3 C0.67 3.66 0.34 4.32 0 5 C-0.66 5 -1.32 5 -2 5 C-2.33 6.32 -2.66 7.64 -3 9 C-3.33 7.02 -3.66 5.04 -4 3 C-2.68 2.01 -1.36 1.02 0 0 Z " fill="#2E332A" transform="translate(134,223)"/>
<path d="M0 0 C0.33 0 0.66 0 1 0 C1.66 3.63 2.32 7.26 3 11 C2.01 11 1.02 11 0 11 C0 7.37 0 3.74 0 0 Z " fill="#84C963" transform="translate(177,253)"/>
<path d="M0 0 C0.99 0 1.98 0 3 0 C2.71125 0.53625 2.4225 1.0725 2.125 1.625 C0.83288192 4.35280484 -0.08558592 7.12612718 -1 10 C-1.33 10 -1.66 10 -2 10 C-2.17942163 6.05272412 -2.09350689 3.4019487 0 0 Z " fill="#2B3826" transform="translate(206,231)"/>
<path d="M0 0 C2.9719385 1.12451727 5.33440687 2.22293791 8 4 C7.01 4.99 6.02 5.98 5 7 C3.35 4.69 1.7 2.38 0 0 Z " fill="#84CA63" transform="translate(174,207)"/>
</svg>
